<mxfile host="www.draw.io" modified="2020-03-06T07:16:17.340Z" agent="Mozilla/5.0 (Windows NT 6.0; rv:52.0) Gecko/20100101 Firefox/52.0" etag="lL2Yi6Nt-cZuq_9bB3l1" version="12.8.1" type="github">
  <diagram id="awTgwJ8C14MsRacQySme" name="Page-1">
    <mxGraphModel dx="786" dy="1723" grid="0" gridSize="10" guides="1" tooltips="1" connect="1" arrows="1" fold="1" page="1" pageScale="1" pageWidth="827" pageHeight="1169" math="0" shadow="0">
      <root>
        <mxCell id="0" />
        <mxCell id="1" parent="0" />
        <mxCell id="VX38q-8Tfx1qq0T2sIIn-2" value="&lt;h1 id=&quot;model_name_main&quot; style=&quot;font-size: 24px&quot;&gt;&lt;font style=&quot;font-size: 24px&quot;&gt;Vigor2832&lt;/font&gt;&lt;/h1&gt;&lt;b&gt;&lt;font style=&quot;font-size: 24px&quot;&gt;Series&lt;/font&gt;&lt;/b&gt;" style="ellipse;whiteSpace=wrap;html=1;aspect=fixed;" parent="1" vertex="1">
          <mxGeometry x="122.5" y="-901" width="130" height="130" as="geometry" />
        </mxCell>
        <mxCell id="VX38q-8Tfx1qq0T2sIIn-3" value="&lt;h1 id=&quot;model_name_main&quot; style=&quot;font-size: 15px&quot;&gt;&lt;font style=&quot;font-size: 15px&quot;&gt;VigorSwitch P2280x&lt;/font&gt;&lt;/h1&gt;&lt;p style=&quot;font-size: 15px&quot;&gt;&lt;font style=&quot;font-size: 15px&quot;&gt;(DHCP server)&lt;/font&gt;&lt;br&gt;&lt;/p&gt;" style="rounded=0;whiteSpace=wrap;html=1;" parent="1" vertex="1">
          <mxGeometry x="63" y="-738" width="249" height="67" as="geometry" />
        </mxCell>
        <mxCell id="VX38q-8Tfx1qq0T2sIIn-7" value="" style="endArrow=none;html=1;entryX=0.5;entryY=1;entryDx=0;entryDy=0;exitX=0.5;exitY=0;exitDx=0;exitDy=0;" parent="1" source="VX38q-8Tfx1qq0T2sIIn-3" target="VX38q-8Tfx1qq0T2sIIn-2" edge="1">
          <mxGeometry width="50" height="50" relative="1" as="geometry">
            <mxPoint x="321" y="-550" as="sourcePoint" />
            <mxPoint x="371" y="-600" as="targetPoint" />
          </mxGeometry>
        </mxCell>
        <mxCell id="VX38q-8Tfx1qq0T2sIIn-8" value="&lt;font style=&quot;font-size: 24px&quot;&gt;Host&lt;/font&gt;" style="whiteSpace=wrap;html=1;aspect=fixed;" parent="1" vertex="1">
          <mxGeometry x="147.5" y="-641" width="80" height="80" as="geometry" />
        </mxCell>
        <mxCell id="VX38q-8Tfx1qq0T2sIIn-11" value="" style="endArrow=none;html=1;" parent="1" source="VX38q-8Tfx1qq0T2sIIn-8" target="VX38q-8Tfx1qq0T2sIIn-3" edge="1">
          <mxGeometry width="50" height="50" relative="1" as="geometry">
            <mxPoint x="297" y="-523" as="sourcePoint" />
            <mxPoint x="297" y="-571" as="targetPoint" />
          </mxGeometry>
        </mxCell>
        <mxCell id="VX38q-8Tfx1qq0T2sIIn-12" value="&lt;div class=&quot;col-md-10&quot;&gt;Vlan Routing -&amp;gt;Interface Setting&lt;br&gt;Vlan2&lt;br&gt;192.168.5.1/24&lt;br&gt;&lt;/div&gt;" style="text;html=1;align=left;verticalAlign=middle;whiteSpace=wrap;rounded=0;fillColor=none;strokeColor=#6c8ebf;" parent="1" vertex="1">
          <mxGeometry x="416" y="-648" width="186" height="68" as="geometry" />
        </mxCell>
        <mxCell id="0wuKLxErqsubGauQZ7MV-1" value="" style="shape=image;verticalLabelPosition=bottom;labelBackgroundColor=#ffffff;verticalAlign=top;aspect=fixed;imageAspect=0;image=data:image/png,iVBORw0KGgoAAAANSUhEUgAAAogAAAEyCAYAAAB58CE0AAAbOElEQVR4nO3dMW8jZ5rg8f0gl94n0KfYfDfY3cD5DB1cNJM5mZATXOJ1BxvMAgLGgWGAyQJ9yVpB24CJI7aAAXTuCtwjSzibh7bbttpTkuDnAopkvcUqFimyWSXq9wMezEikqoocDfX3Wyz67wIAAEr+rusDAACgXwQiAAAJgQgAQEIgAgCQEIgAACQEIgAACYEIAEBCIAIAkBCIAAAkBCIAAIm1gfjT8/+Ii3/5x/jqv/83YxZz8S//GG+/eHGo31EA4MAaA/H//u5/dB4ipt/z//7nHw/5uwoAHEhtIP70/D86jw/zOMZKIgAcn9pAvPjnf+g8PMzjmIt//odD/84CAO9YbSB2HR3mcQ0AcFwEotl5AIDjIhDNzgMAHBeBaHYeAOC4CESz8wAAx0Ugmp0HADguAtHsPADAcRGIZucBAI6LQDQ7DwBwXHoRiN/94YPOI6frqT4Hj+k5AQCOy/4D8Q8v4i5expuN7v9BXL+JuPtixxj65OXi2Hfe1gPmTV55AvOPt/j56nNQ/frjKOKHuP5D9yEoEAHgaTiKQHyTx5ZRtuc4TPY9e0ybH09bIPZ/AIDj8o4D8X7165MXcbfY+nw17D6k5hZBVfn+mxfxXRJTP8T1Fy8X27qdlo/8fr9/KO9vpvikeox122/bf3UaVvc+ebk8lrXbrD4H/7vmOSnvY93zWT6m0m1fpMfy3Rc/lHawn5VJAOC4HCAQI8qB8iaPlUBat3r23Rc/rAZVJdrSVbzZPstBODsFnB7T7PZt91+dTVYLN3tMm51ibns+Z7cvfnYRwvf3r4brSsgKRADgQIGYrN4lUVKJodpgmd2nPujqArFmyttdF0Wt+6+b8opdrMbk1o+pPRAbn89PXq7sf7ZiuMFjF4gAwL1eBWJ6+jM1u099rNUHYiXc7ve5bkWwff9tj7+0z/vj2fQx7SMQv/vih9Xnoeb5nmuOXoEIAE9Z/wJx7Xv+NgnEZaTVrUy2BuLa/W/zHMyibtPHdJhArDxnEbGP9yECAMelV4HYfgp0g0CsOc262ynmNdN4/9Lj3vAxHeQUc+u+BSIA0LdArLsI5ZOXUb3yuTUQy0G0uFCjPrLSVbe2/dcH1voo2+wx7SUQa382ojGOSyudAhEAmOs4EEvv0Wv6mJskYDZ7D2L6wdUv4031OJKPwam/gKR+//Wz8kHZbR+dU9lm9TlIv94mEMtReL+fL9JVxeqx7uN9iADAcenFv2rPvMOpO+W+5wEAjotAPKZZOR1+mH8rCwBwXATikU31Y3UO8a/sAwCOi0A0Ow8AcFwEotl5AIDjIhDNzgMAHBeBaHYeAOC4CESz8wAAx0Ugmp0HADguAtHsPADAcRGIZucBAI6LQDQ7DwBwXASiMcYYY4xJRiAaY4wxxphkBKIxxhhjjEmmNhABAHi6BCIAAAmBCABAQiACAJAQiAAAJAQiAAAJgQgAQEIgAgCQEIgAACQEIgAACYEIAEBCIAIAkBCIAAAkBCIAAAmBCABAQiACAJAQiAAAJAQiAAAJgQgAQEIgAgCQEIgAACQEIgAACYEIAEBCIAIAkBCIAAAkBCIAAAmBCABAQiACAJAQiAAAJAQiAAAJgQgsFEUReZ5HlmUxHo+NMcYccLIsizzPoyiKrv8cCERgpiiKmEwm8e233/bixQngqSmKIi4vL2MymXT+OiwQgYiIyPM8vv32264PA+DJu7y8jDzPOz0GgQhERMRkMom7u7uuDwPgySuKIrIs6/QYBCIQERHj8bjrQwDgXtevyQIRiIjuX4wAWOr6NVkgAhHR/YsRAEtdvyYLRCAiun8xAmCp69dkgQhERPcvRgAsdf2aLBCBiOj+xQiApa5fkwVib01jNDiJk5OTGFavdM+GcXJyEieDUUynoxjM//uG2ztZ3WAMT+r2Nf+ZYdRfbD//ufnty+1UZ2WX9M5uL0az35WV/53nv5/laf1dBUAg0mg6GtQGXTac/aEdjKbLP8Btf3STP9TV4CuFXbKd/QXi4njprYe/GLX8w4x/OgDYmkCk2SLqyoFWibINA3Eem8PhsOYPeRp2y5B7aCBW7j9f8Wy7H516yIvR4h9iBsMY1qwgZkOrxwAPIRBZYx5og1g2230Qzv/qbhSIpdCr/nxElINtOCyH254CMZarnrPdCsQ+elggjpLfldW3KAxiMCitJDu9DByp0WjUeAbtgw8+2Hp7ApG15is081W9xUpgtrhDeyAmUVgXfaVgu7/vbH/7C8SV46Z39v8exNnvQ/LWgukoBiIROFJ1kfiQOIwQiLS6j67BKKZ1wbZBIFbjbDXW0rCbrfYNYjQViE/JO7lIZcXsd8TvAXCsypH40DiMEIhsYBFsWXl1715rIJauXq7O4q90Q+gNR+/oFDN9dJhA3PR+AI/XaDTaKQ4jBCKbWFzkUXk/YkR7INZ9zMjK1cyrYbe4+GDtewUfepEKfbT3QMyGDVfMV36HAVghENlA08fQxNoAHIymK+9hXGyx9aKR8srjvj/mxkUqfbT/FcSGaPQeRIBWApGNJJ99WLY2EP9P4+fTpZ+x+NCVv4d+ULZA7KN3c4q58jshDgE2IhCBXuj6xQiApa5fkwUiEBHdvxgBsNT1a7JABCKi+xcjAJa6fk0WiEBEdP9iBMBS16/JAhGIiO5fjABY6vo1WSACEdH9ixEAS12/JgtEICIiJpNJ3N3ddX0YAE9eURSRZd1+EJxABCIi4uXLl3F5edn1YQA8eZeXl/Hy5ctOj0EgAhER8csvv8RkMomrq6soiqLrwwF4coqiiKurq5hMJvHLL790eiwCEYiIiNvb2yiKIvI8jyzLYjweG2OMOeBkWRZ5nkdRFHF7e9vp3wSBCEREdP5iBMBS16/JAhGIiO5fjABY6vo1WSACEdH9ixEAS12/JgtEICK6fzECYKnr12SBCERE9y9GACx1/ZosEIGICB+SDdAjAhHoBYEI0B8CEeiFX3/9NX799deuDwPgyevD67FABBJdvygBPGV9eQ0WiAAAJAQiAAAJgQgAQEIgAgCQEIgAACQEIgAACYEIAEBCIAIAkBCIAAAkBCIAAAmBCABAQiACAJAQiAAAJAQiAAAJgQgAQEIgAgtFUUSe55FlWYzHY2OMMQecLMsiz/MoiqLrPwcCEZgpiiImk0l888038fr163jz5o0xxpgDzuvXr+PVq1cxmUw6j0SBCERERJ7ncXl5GdfX11EURdzc3MTt7a0xxpgDzM3NTRRFEdfX1/Hq1avI87zTvwkCEYiIiMlkEtfX13F3d9f1oQA8WXd3d/Hjjz9GlmWdHodABCIiYjwed35KA4DZW37G43GnxyAQey2L4clJnNTMsNt/sCiZH+Mwtj2kbFh+HA/fDvsxHo/j9va268MAePJubm4EIus0B+LJyUkMRtOuD/DBsmHfQheBCNAPt7e3ApF1GlbVsuF9JKbfn44G61cZp6MYJJFZXa2bxmjQdPv8tkEMh/P9DGI0rR7j/H7DyBbHWXd7aYZZ42OtPqY0itv2teY5ZIVABOgHgUiL5riprsDNv25eZWxYjRyMYnaPmnBrC7vBKKYrx9i0nfn9Nw/Epsd0sijfNfta3EcgbkogAvSDQKRFc9zMV9aGWSxXBhexF5GsrkXTfZIN3q8urgbarLVKMZYsTTYHYl2cVoO28T2Ii+MZxHLRcH6f+fdq9jVfSWx6nDQSiAD9IBBpsWEgJqdXqzOPqboVxNJ277fR/L7G5Snm9C5rTjHXHO98+62BOH9MlfPkyeOuPab77QjErQlEgH4QiLTY8BTzRoEYNe9BLN3eEGRLfQ7EmvccCsStCUSAfhCItNjwIpW208dNWy9HWs0p5jTqtg3EQ55iFoj7IBAB+kEg0mLzj7lpvKBjHkq1q4ebXFxSvX3zQGy+IKZyvDtfpLIuEF2ksimBCNAPApEW231Q9kpQVVfRViKxGnvVbZRvf8Ap5vKp73XHUns19PxuG37MTfV4BOLWBCJAPwhEjlD9exDpP4EI0A8CkSMkEB8rgQjQDwKRIyQQHyuBCNAPAhHoDYEI0A8CEegNgQjQDwIR6A2BCNAPAhHoDYEI0A8CEegNgQjQDwIR6A2BCNAPAhHoDYEI0A8CEegNgQjQDwIR6A2BCNAPAhHoDYEI0A8CEegNgQjQDwIR6A2BCNAPAhHojclkEkVRdH0YAE/e27dvI8uyTo9BIAIREZHneVxcXHR9GABP3sXFReR53ukxCEQgIiKKoojJZBJXV1dWEgE6UBRFXF1d9eKMjkAEFoqiiDzPI8uyGI/HxhhjDjhZlkWe553HYYRABACgQiACAJAQiAAAJAQiAAAJgQgAQEIgAgCQEIgAACQEIgAACYEIAEBCIAIAkBCIAAAkBCIAAAmBCABAQiACAJAQiAAAJAQisFAUReR5HlmWxXg8NsYYc8DJsizyPI+iKLr+cyAQgZmiKGIymcQ333wTr1+/jjdv3hhjjDngvH79Ol69ehWTyaTzSBSIQERE5Hkel5eXcX19HUVRxM3NTdze3hpjjDnA3NzcRFEUcX19Ha9evYo8zzv9myAQgYiImEwmcX19HXd3d10fCsCTdXd3Fz/++GNkWdbpcQhEICIixuNx56c0AJi95Wc8Hnd6DAKx17IYnpzEyckwsuTr1Rm2/oPGNEaD+/u333m5r8Eopjvdh8diPB7H7e1t14cB8OTd3NwIRNbZPBBPTgYxWldp01EMFvedb2+DfQvEJ0MgAvTD7e2tQGSdhkCsBFk2nIXfYE0hTkeD2UrjcNiw4lhaYTw5iWFWt6+2+8xvH8RwOFgJ1/kxNK56JhFbE7Jrb68+V2xLIAL0g0Ckxb4CcR5uw8jmkZXUWRp+yazE35b3ub9tfozVWR5zw+roYtub3i4QH0ogAvSDQKTFnk4xJ1FYisXq7aXvLVb75gG2yX2a3uc4/9na1cj77dXep+YxOJ39zghEgH4QiLTYNBDXv/9wcXo5q/86smHNxSuV1cpN7lM6xTxKlzgborZ837rHVncKec0paHYiEAH6QSDSYrNTzOutOTU8j71eBGLUvMdwy9vZiUAE6AeBSIs9BGJtVFVW4PZ+irkSbQ88PTx/32LTp/K03c52+hGI0zg7fRaj8+r3z2P07Fk8m8/KHSq3PxvFyia22l/E+ai8vdM4S355246nfj+b37/t8aTbOz2r/j+r7XagzwQiLXYPxHnEVS9gSeNq3xeprK7qNV2kshqgbRHbdJrZRSq76j4Ql1GT9tP99xffrH49i6lyBE3PTjeIxKb9zeIwiarzUWl79cezLsLOR9vcv+3xtD3+9ucH6DeBSItdA3EZddVVtsXq3+KGNAAHo1Hrx9ys3qc5ECNqIrH6OFYisGElsvZ2gbirhwViZWXs9Gzxv+n07LT0dTVaKls5O73/+VGMqit6SZwtfiBO56t6dbfHeYxWVv023F9527VmwVX+menZafOqYM320uemuvmWx1N3fOej5fbabgd6TyACvbF9IK6uhKXhUwqp6VmcrgmU6dlZsjq2El8rP7saaZUNro28dftrj6ntVxDrfn6rFb1qEFePb3oWp/OobLsd6D2BCPTG1oFYu9JVCa7zUTwbncf5aE3Mrfv5pv1Mz+K0MRDXr1a27W8epOfzVcaG9zSW36O4zWOrrrRu/HP3O6kN5lJAtt0O9J9ABHpj20CcJgGVTvP74Vq3WnPRyP0FG6VvzuNsdbO772/+uJrfg7j6nr70PYYbqI3r5uMrb1sgwvETiEBvPCgQW1fC5lfj7npVcXpV7+i85n73q4rbXYyx6Snt0v0aT+FuE2DNV0+n26x5PE4xw9ETiEBv7OcUc2p6dhqnZ9PFf7bbIJxmG06D53xU81E0m9j0PYg7BGLjRSdrHue6x1MXeysXqay5Heg9gQj0xkMvUknCoxw2Saisv6q4us31VxVXLvLY6fRpXZC2vQ+y4RRzY4BteSFM6+PxMTdw7AQi0Bt7+ZibUthU35dX/nrlcwYr21v9HOxRw3sc178Xcr6drfe38rjqVwDrPt6nfn/NHwdUvf8mj8cHZcNxE4hAb3T/QdkARAhEoEcEIkA/CESgNwQiQD8IRKA3BCJAPwhEoDcEIkA/CESgNwQiQD8IRKA3BCJAPwhEoDcEIkA/CESgNyaTSRRF0fVhADx5b9++jSzLOj0GgQhERESe53FxcdH1YQA8eRcXF5HneafHIBCBiIgoiiImk0lcXV1ZSQToQFEUcXV11YszOgIRWCiKIvI8jyzLYjweG2OMOeBkWRZ5nncehxECEQCACoEIAEBCIAIAkBCIAAAkBCIAAAmBCABAQiACAJAQiAAAJAQiAAAJgQgAQEIgAgCQEIgAACQEIgAACYEIAEBCIAIAkBCIwEJRFJHneWRZFuPx2BhjzAEny7LI8zyKouj6z4FABGaKoojJZBLffPNNvH79Ot68eWOMMeaA8/r163j16lVMJpPOI1EgAhERked5XF5exvX1dRRFETc3N3F7e2uMMeYAc3NzE0VRxPX1dbx69SryPO/0b4JABCIiYjKZxPX1ddzd3XV9KABP1t3dXfz444+RZVmnxyEQgYiIGI/HnZ/SAGD2lp/xeNzpMQjERyGL4clJnMxnMIrpVj8/jdHgJE5OhnGofx7JhicxbNzZ/HhmMxilj2Y6GuzwWBuP6P45PNxz8NiMx+O4vb3t+jAAnrybmxuBSJtKHM6nub5qHDYQs+HsGNsDcRCDQTUC03gUiIcjEAH64fb2ViDSYjqKQRJK1dCpi7/7+yx+pnSfbNgQXw33qQmqZIUvCcFK3DWG7DIQh8NB7bEPhsPK446I5LhmP58sPs6fq9pjb3re5scvIAUiQD8IRNqVoqd+RW6bQKyZTe5T2vF8dbA6s9PE2wfiKJs9vsXd7iNwOGoK46bj3/T22fM0j9zl4QlEgQjQDwKRDdSFWzlitgvE5fv95kE0X4Wruc98xW6+nZXVzPr9b3OKeTS9XzG83+cs3IaR1e6rrBJ029z//r7V9z4+dQIRoB8EIhtbXbl74Cnmmm3OQq4cbQ3bWTnFW3+6d7tAvL//YBTT+fcHo5g2Bl91pXD+mOpWEOtOMd+/73Ht8T1NAhGgHwQi21s55bzvQFyznXcUiItVwyitJlYDceX9hTURWHuf+XG1BSQCEaAfBCKtFheE1LwPMA27ZZAtfuZBp5jXBGLrady646t9VOlq5f12h8Phyvfm+5o/psXxL2KwOfLS46h/D6LTzEvdBuJ5jJ49i2eLGcV5+ebpWZwmtz+LZ6dny9/Dttuf3P6mcXa6vO/pmd9zeEwEIu02WDlrunDkYReprFuJ3GRflfu0XaSysrrX8J7CxtXLyv0bn6fqRShtXz893QXiLJ7KETM9O00j6nwUz0bntT+90e1Pan/3cbi4/+r+gX4TiGxmJX4qH+9SOX06zHb8mJvqdisrhiuRWF1RLB9v7Wrj6vsdF9tcLoOurFaW9zsYTVevRF77PNUE4P1zMVtFFIgPC8R0paq8qjU9Oy19XY2WkvPR6opanMfo2WnMm+Z89CzW99P625/U/qZncVra9uIY1q44An0iEIHe2D4QZ9G3sjK2CJHZytXoPGbRsk2gJJEzjbPT0zhtCNH225/Y/upicHoWpyuRCvSVQAR6Y+tArF0Zm0Xj8uzm7NToVitgm5wiTYKz7fantb800kv3r64qAr0lEIHe2DYQZ++je1Y7y5hZc2q5fqsb3r+0Ovmg2493fwIRHj+BCPTGgwKxddVsfvXuBqc376/U3exiispK5da3H/H+nGKGR08gAr2xn1PMqenZaZyeTRf/uX5bDStcbRd5bHARyJPaX10MukgFHhWBCPTGQy9SScKjHEJJqLQFzbrTnzWrZUnwtN3+xPbnY27g0ROIQG/s5WNuKh/dUn6vXfnr89EyWNa9l3H545UPml6Jo/W3P6X91f3vIg7hcRGIQG/4V+0B9INABHpDIAL0g0AEekMgAvSDQAR6QyAC9INABHpDIAL0g0AEekMgAvSDQAR6QyAC9INABHpDIAL0g0AEemMymURRFF0fBsCT9/bt28iyrNNjEIhARETkeR4XFxddHwbAk3dxcRF5nnd6DAIRiIiIoihiMpnE1dWVlUSADhRFEVdXV704oyMQgYWiKCLP88iyLMbjsTHGmANOlmWR53nncRghEAEAqBCIAAAkBCIAAAmBCABAQiACAJAQiAAAJAQiAAAJgQgAQEIgAgCQEIgAACQEIgB06H999Vn88exf47ef/j7+/t/+qffz209/H388+9d48erLrp863iGBCAAdePH1l/Hex+93Hny7zHsfvx8vvhaKx0ggAsCBPfvi3zuPu33Osy/+veunlD0TiABwQB99/qfOg+5dzEef/6nrp5Y9EogAcCAvvv6y85B7l+N08/EQiABwII/9PYdt897H73f9FLMnAhEADuD5V//ZecBZRWRTAhEADmD42Yedx9shZvjZh10/1eyBQASAA3gsn3O46/z20993/VSzBwIRAA7gocH10dXPERHx16/2HXP/GX+Nn+O/Pt9/JPL4CUQAOICHR1zET3/7OeJvf4mPBCIHIhAB4AAeFFtfXUbEZTz//C/x00rM3QfeV3+JnxZ7uYzn297++T/F8+8j4vv0IpqPrn5e+Z5AfDoEIgAcwENC6/n3ET9d/Sn+/t/+FP/1t/l/T1cXy9E3Ox09/3qT2++jcx6ii23P9vfQ09o8fgIRAA5g69CqrBqmcbcMwDTiyt/b5Pb59iv3/fwv8VOyL4H41AhEADiAbSPro6vq+w6rwVf3HsLySuN2t5dPM+9yelkgHgeBCAAHsF1kzU8P11hE434DcblquNvpZYF4HAQiABzAVpG18p7A8vcbTgvvdIp5GY9/vdrt9LJAPA4CEQAOYJvAqruquH4FMKIcks+/j8oKY9vt6Qrj/DMXdzm9LBCPg0AEgAPYOLBqP9KmGnGX8Xy+Gvj95XInde9ZXHt7ZT+fzz4SZ9cP5ebxE4gAcAC/+fR3O0XX6tSdQt7m9qY43e308m8+/V3XTzV7IBAB4ACGn33Y+0D86Ornymctbj/Dzz7s+qlmDwQiABzA8692e1/fOw3E+1PL+/jX+b34+stun2j2QiACwIG89+f39xyJ/Zr3/vx+108xeyIQAeBAXnz9ZecR9y7H6uHxEIgAcEAffb7be/z6Oh99/qeun1r2SCACwIEdWySKw+MjEAGgAy++/vLRvyfxvT+/77TykRKIANChF19/GcPPPnwHn5P4buY3n/4uhp99KAyPnEAEACAhEAEASPx/2DbBFGdQiC4AAAAASUVORK5CYII=;" parent="1" vertex="1">
          <mxGeometry x="247" y="-564" width="373.24" height="176.26" as="geometry" />
        </mxCell>
        <mxCell id="0wuKLxErqsubGauQZ7MV-2" value="" style="endArrow=classic;html=1;entryX=0.5;entryY=1;entryDx=0;entryDy=0;exitX=0;exitY=0.5;exitDx=0;exitDy=0;" parent="1" source="VX38q-8Tfx1qq0T2sIIn-12" target="VX38q-8Tfx1qq0T2sIIn-3" edge="1">
          <mxGeometry width="50" height="50" relative="1" as="geometry">
            <mxPoint x="331" y="-591" as="sourcePoint" />
            <mxPoint x="381" y="-641" as="targetPoint" />
          </mxGeometry>
        </mxCell>
        <mxCell id="0wuKLxErqsubGauQZ7MV-3" value="LAN2&lt;br&gt;Disable DHCP&lt;br&gt;VLAN1: LAN2: P2" style="text;html=1;align=left;verticalAlign=middle;whiteSpace=wrap;rounded=0;fillColor=none;strokeColor=#6c8ebf;" parent="1" vertex="1">
          <mxGeometry x="422" y="-862" width="182" height="74" as="geometry" />
        </mxCell>
        <mxCell id="i8enQgpJjUHrLjXavkXj-9" value="" style="shape=image;verticalLabelPosition=bottom;labelBackgroundColor=#ffffff;verticalAlign=top;aspect=fixed;imageAspect=0;image=data:image/png,iVBORw0KGgoAAAANSUhEUgAAAdAAAACzCAYAAAA5Sk1AAAAgAElEQVR4nO2dTYwcx3XH554gvgSIcohjBAGSY4BNcovlg4A1HECAT+MDhQQIFEAAb7xEhwCSHaORgKEs2pBNxZGBJekRvXIQDCVI3DUpe2mxKdhafkii1ubSpJeWV8ulyNVyDV0YvBy6e7o+Xn12z/TH/n/AA7nT3VXVNT3v3+9VddeAAAAAABDMoOkGAAAAAF0EAgoAAABEAAEFAAAAIoCAAgAAABFAQAEAAIAIIKAAAABABBBQAAAAIAIIKAAAABABBBQAAACIAAIKAAAARAABBQAAACKAgAIAAAARQEABAACACCCgAAAAQAQQUAAAACACCCgAAAAQASugFy5cgMFgsFqt4MMPP4TBemEQUBgMNhODgML6ZhBQGAw2E4OAwvpmEFAYDDYTg4DC+mYQUBgMNhODgML6ZhUF9CSdGMzRsceO0Fnrfm/Q4mNzdGwwR8eeOsmXMThEr2n7i5/x9tpTjv1OH6GXBnndkh2gxdNVzqk9lvWBwcT+fvGQsl3st+J78O0npX62v9S+jK+jPnNdW4Y2Stdtvo/0maHcKfW5fqz7t9K0QUCnZefolcEcHXt8ga5Z93uPXn88v16ePseXMXiGLmr7i5/xdvFp135qG4v6VHuSXr/ke97C+QzmaOGF9/z6aWLu83LZbAQ0F7GXHjvA/NBLR/DSs294OjlxH08B1YRb2WeyvaUCKrXR0SdM288+e4CODeboxItq/xXOmjvv4ruxOfSsnPK7s10fsXXUaZ4CKva1dg35Cei0+7ysK+Ka9bqe6jUI6LTMU0AvLdDCYI4WHn+SEY9SXEoh8hFQUcQiBFRqc9EGHxHN682PzwTcdpx6Lr43HUr/KTceMxHQzJEcotdePMQ4BvFOunAIoVFCBQE1Occ2CajPTYDYb1rbOYfv913qIsAfx2/3EVCfOuq0CAG9UET5ivBZBXT6fe6+HqpeT/UaBHRa5icG117IhXP8DCM2YnRWiIxLQEMiOh8BLdo4R6+MPcTMK+pU6tcib0/L61OPn4GA5o7lqZOT/eVopXAGR2jxscJp+Di5Q/SaT6RqdRZiFFuUU5zTASn1KzszRcC5CGJyvFjmEVp8KrRMro2Ovla/jzyNaBeoSGf+4iG3GFUVUC0NL96EefSteHx+nYUKqNyHHgI6zT5nhz1M+/hcT2o7TBHuITrxmKGPIaANmo+A5mL49LnJ/rL4FAKzQK8/XgiYj4A+Qxe9ItVwAdXTwoIIjp/xE1r1WJ82FjZpm5wqzsrI9p2+gBbp22ffMDh4wRm9eCjf5jsGGiCgqhVtMEWgxjSb59+ck48ts2IE6hfh2dKJ5v49++wBy/cfksL1FTRXf3v2ZaSAZtexaeyyLHeafS62R7+Bi7mePAV0oN7ghqXdIaANCqgUscnpT1acHl+ga95joHUJqCJyqkgKf2dC+yS98vSTk9+BU0zz44+xfeVonxaBzkhAM0dS/tDUv2WH9UYehU5BQKNTuHxkIUbR8jlZnGJsmbMUUM1ixz9tYhdSh/pdy0IV3rdxKVxWQC0R6PT6XDZpAlnRnuDryTcCFa4rrwhbNghocwJaCE6RtlX/llOc7+VR6AwEVDNTm+SItIhU5W1+E5Cyfeek4wtxFaNyqY+aEVDGWWk/btkZnX32gEeazVK+UyBd2+3OpHCMnEnpvQABdZZZdQy0QjrR5/t3phodKVyva0yL/vwE1DyRp70p3HCTI8Lw6yleQM03T7pBQJsSUEbgNMGQxeraC09O0rmzi0ANYvf4Al1T086W6NSvz4o2ZwI5EWTGXhk3JaDGR0gYp6qlUNspoG7HUU8EGnQOan/UOInIatbxT67M2DpEIXKVOZ0IdJaTiGJMulEIvp4QgXbbHGJUOH/OVEFTBKIc82tGQLO2P0mvj/N/L8nnFC+gyoQlJgJl+3CWAlr8qOUfsmEqv+BoyjvoGQioc4zN5Ux8HimoqcyZP8bi4bSt+9cnoFKGIiAC1bZPxg7b+hhLeJ9Uv56U7do4sWkMNOzZUwjotMwuRoVQyOIgR2DcLNUyKmtQQMUJPNK+4qQojxRuMf45OT/XYy2G7crx9QgoYy89u2icaCALq8VhTXMSkeDYynGkA7R42uV8uPNmtgUJqKtMtY3hAio5Xu92u/vensKrI4WrvijiEC1ax5yZvo2ZhavaNF+kEBGB6mla2+NhHteT2E6tj7iZzuHP7UJApyygjC288FNFKE3CyjzmMYlcmxRQ0w2Aet7u8U89TWt7lEc/n3LsND9u/Axe5QeDwVxWT6oZAgrrm0FAYTCYwyCgMBhnEFAYDOYwCCgMxhkEFAaDzcQgoLC+GQQUBoPNxCCgsL4ZK6Bra2swGAwGg8EsZhTQ+fl5GAwGg83A4HO7aVYBBQAAMH3gc7sJBBQAABoGPrebQEABAKBh4HO7CQQUAAAaBj63m0BAAQCgYeBzuwkEFAAAGgY+t5sECOhVGg/m6NjgMK1NPtumlaH6WZvI2zwc07bvIelh5Y399Z7b9ujgpOyTo1+0sP/a/p0C0D/sPlex5Kq+j/SZ4Tds9W2GugYHaWXT1Xr12I74jhp8fYSAztHJUSFHEc52c0wnpS97moQJaCFu43TySX5+PhdRTHtaIlbSd9KSNgGwj7D6XNFfbo7ppPSZn4C6fRvnKwufb/N/al0RQUsD1OXrowS07KxAZ6t9+dMm5MvkLsQm2zMjZv6dAABUvAWUiNYSRvisAurj23jfpAuN4bhO+Y/62hwuoMmYVoZFh3ICqoTzWrRV2NdobLhLKiNcU8RmSUEMD2aCMDhMa8rx2YVnuBjycN58oRT4tGFMK0m5j9xXYmqE6b9C0AZzdGx4WOkjVwTL9YFSpnRHyZ0L953GnjMAwIcQAZV9lYeAevm2igJqDaJMmiDWW/qsHycGH6NG3Z7lae2q0ddHCOjVrAHDMW07w3flbyXaUb+cQuAm++cnmgmq+kUZ6pZCcKH+vO5SnJWucl4oYh2+bXD0h6v/Jjn6QAHl+kC9+AzfibnM2HMGALiIEVDZL3KW/UaDfBubwnVkGMWxRO137/KBjM9SBY67YQgpT6FOXx8noHlh45S/0xFFKmtsfjKqs5ZELSt/nBxWvvj8WKZs9kJi70bySM4Ssnt1anAbXDcYrv4LPN4qXoa7KZeAVj5nAICLygJqiUDDBEM1/zHBNSEDNWmPSxNsfjsvYy2x+yN3eTJ1+vpIAc0bkadz1S+Ks3FKZmc9iRCLtKuQ3sw7gj1pXwFlQ3C+w2ydGt6GMAE0D2xXEVB18pdyZ+UQ0OrnDABw0dYUbjjyZBynJhjqXUuKz7LthZDFlidRo6+PFlB2UhGn2iLMhJWsoYdpZXRQSgufHI2ljqsUgQ4O05qrbT4Dy12MQLWLJTCFiwgUgKnT1klEMUji4+t31Xo3x3RycJBW0vxfJb0bXB63Tw2+voKAincDgQ6em5atRrda+sBzLI5N4YqTiEJy44ap3t5tqLhdGwNV9p/0nVtA9b41fSeRY6AQUACiaedjLB4o/qW+YSdhyMni02Mfo6nL11cSUN2BixXzadMyT67PBFUHja2daqrX1tk+j2w4H64NaUOE2Ij1Kyly93ZLOkRo74o0ZqB+J/GzcCGgAMTRmhcpRESgelpVDVJsmmCuV38qo1p5GjX4erzKr9VAjADYD8DndhMIaJswpWQ79ZAyACAU+NxuAgFtGXo6BNEnAH0HPrebQEABAKBh4HO7CQQUAAAaBj63m0BAAQCgYeBzuwkEFAAAGgY+t5tAQAEAoGHgc7sJBBQAABoGPreb+Avo5oiGgwENNBvSKGAFbyeTepRyN0c0ZOraHA1pMBjQUNqQUsK2tbShqdGGeoyfAwBARUIF9OHDh3Tp8mX6weIiPX/0KD1/9Cj9YHGRLl2+TA8fPpxiS7vBrPonUEBnICB5PcPhgAZJqn0u158JZZIkNBiOyNi0kLZDQAEAMyZEQB88eEDHT5ygM0tLdP36ddrd3aXd3V26fv06nVlaouMnTtCDBw+m3OL2Msv+qVlAN2k0FCI9UdSK40dJvj0hdjWZST0pJWJ9XP1pIZy5kJqWp5mGgKaJHNUK51pExeYoXeknZp80EbcZ+goA0At8BfThw4e0cPw4nT9/nj7++B4tvfkWff2b36Ovf/N79KOfvEUf37tH58+fp4Xjx+MjrbqCBVc5UwhK1P658PY79NrSm/Ta0pt08Wer9fSPQI0CmouCoGJpIvxdpGaNKqfXszkalsLE1J8mZSpWqstSphMfAdX22aTR0CxymaCW27W2KuWp26V+AAD0Dl8BvXT5Mp1ZWqKtO9v0799eoL+Y/0f64j/9C/3tl/+ZPveFr9CRF0/Q9t27dGZpiS5dvqwXwA7FTekGvQEBFfvn9Btn6exKShffuUpvr75Lb138OZ37yVsR/ZMZJy+Vx0AnY4lcZ1hFx4C0nxBZqsezf7uiWkfdtn1jzkU6Nm9bVD+llCAKBaC3+AroqVOnaH19nc6c+yn9+WNP0PPjC5Ru/x89tfIe/eEXDtBnHx3S2z9/h9bX1+nUqVN6AYx/yW7wpzA81YCAFv3z1sWf07nzb9PPLr1Pq1c/oPfX1mn9V7fo3fc+oPfefz+of2zUF4GyAiakYaMElMo0rfK5HpVlETA7OWgKKVw1TSvXy6VoRQFV+kkT0BlM1gIAtAZfAX3+6FHa3d2lf/3P79Bf/f0/0Dfe/5CeWL1Bf7lwhf7oP1J6ZO6L9Nx3v0+7u7v0/NGjegG2yZimbF/scJU2bKdEu4asYpXIuOifV8+cpXeuXKN3r/2Srt+4Sb/5zYe0tbVFH320RZevXA3uH217cU7cPvECWncESjQRxiQRPucEihl39W27hDL2Ovk48Ri3LY5XBDU4AkW0CcB+IlRAv/qN79Ijc/P0Z89doM/99xV65DtX6A/+7QI9MvdF+vbxV+j+/fv0zW99Sy8gNMNWZbiKGbZLk4FRqOsYuir6Z/ncCn3wyxt069e3aWtri+7fv087Ozt0//4OXV9fD+8faXvZzhmPgcYIKAl3QA6RqWkGrfQlc+eWJoxAmm8U5DFQPVJWUyj6eK79ogUAdBtfAR29/DLduHGDfvzW2/TZR4f0mUefoM98LaXf+2pKv/93T9CfPvoV+sX6r+jGjRs0evllvYDKAuogdriqpqGron8uXXmX3r+2NhHPvb09+t3vfkf37t2jjz76yNE/ljFQpZ2zn4UbI6BUhPbZ57YJQ+y2iFy7nEpQy9SfM5U3yymPLHoWLwT5eDm69qkfANAnfAV0dXWVlpaX6e7dj+nY8UX6k88P6ZG/+RL98V9/iT77+SH9zxtv0u7uLi0tL9Pq6qpeQMQcj2rDVSECWn3oSuyfd1Yv0a83NmhnZ4f29vbok08+oe3t7bj+MWzHm4jaANK2AOxrYh5j2dn5hK68/wF9/3/P0KlXf0TrNzfowYMH9sc0YsZAjcfHDlcx22vygWr/bNy+nY1/3rlD9+7dj+4f03YIaANsjoZSxGp9BAcA0HtCX6SwcPw4LS0v0/Xr12lvb4/29vZofX2dlpaXaeH4cfOLAnxm4Yr7VBmuMsxnMQ3r1TV0VXf/2LZDQBtAm7mGZzwB2NfEvMpvdXWVfrC4SEeee46OPPccnTp1ilZXV+0vCPB5DpSJMqOGq7i6HG+Xq2voqt7+qWMMFAAAwFSAz+0mEFAAAGgY+NxuAgEFveTmrQ1aPrtCiz88DYNVsuWzK3Tz1sZUr1f43G4CAQW9ZOP2Hdq6u9N0M0AP2Lq7Q9dv/naqdcDndhMIKOglG7fvNN0E0CMgoIADAgp6CQQU1AkEFHBAQEEvgYCCOoGAAg4IKOglEFBQJxBQwLE/BLSBdelAs0BAQZ1AQAHHbARUeVtF+UaH+JXRi7f5sOt/6jtDQPcZuoAalqmTrkPzC//9XmptqINI/g1oiyz41MEv4ce/qCWm7cAGBBRwzC4CVUXK+BonHxHNHESSJH6vwYOA7jtEAS1fD8Ytl1SKkLZWYcDahOY6yLKWrFy/vOydSiagXm82C2w7cAMBBRytElBvIUsL4ZQdkLyLfVkc43ZtFfXSoVlXS7es2m7dBqaCVwSqCpvt+rMtqG6rwyp8yv7WFSkCBDSq7cAGBBRwdFJA06RM3XIrmWgLYnNv/TdtZ1ZR5+qxL/8jrCIQuKI7qIe6BdQvimPqyMscCulXbSWevA2bo6Hl5dl6CtdXTBGBVqcJAZ2fn4e13FokoLmDcP3Q2XIcTtC18nnI9gnCaune6+eBWeEloPnN0kSIrIsN+wiWSaSFz1TRThMaJMlkzDJIFL0XqI+MXMGEJgR0bW0N1nJrWEDDl67R76Yz4Z1MJuLSYK6FW70E1L5aum3VdvuK7mAaeE8iUtPrhnFSv+/MI8oVhx3Ua00VW2ddLmEMaTuwgRQu4GhRBOpVCDsTURpXnFoEGpB2RUTaON4CKu2iTkoLFSBzCrf8TNjHJq5eddn2hXjWCQQUcHRLQE1CJpWlRKSkprsc2w3tsq6Wblu13bYNTI1gAdVSnTYBym/kNPUyTyIqypFm2qp1SoKq1MHNrDXtC/GsHQgo4Gj4OdAwIeEmDPHb5OfgslXS1SjAsN3SLvNq6bZV2x0ruoOpwD/Gos6CFr8bLvWqZzoyUdIF1FxHSD3MnADjNSbeSCr7WtsOYoCAAo798SYisO/Am4hAnUBAAQcEFPQSCCioEwgo4ICAgl4CAQV1AgEFHBBQ0EsgoKBOIKCAAwIKesnG7Tu0dXen6WaAHrB1dwcCClggoKCX7O19Sre37sNgtdje3qdTvV7hc7sJBBQAABoGPrebQEABAKBh4HO7CQQU9JKbtzZo+ewKLf7wNAxW2ZbPrtDNWxtTu155n3uVxoM5OqZacpXZ5zCtTT7bppWh+hlXnrqdI+aYJsnbOxzTtvi3ZgdpxflekaIf1T4vgYCCXoJJRKBOpj2RyCqgovPeHNNJ6bNSIE6OtvPPOAFVP1OFhiPmmKYxCKjU5qLPHCKa9/XJ4UHjjQMEFPQSPMYC6qYVAkpEa4no/MUIq3DynIDyZdmJOaZpfASUaHt0kI4N5mhsea1qts9hWksPG8UWAgp6CQQU1E1bBJTSw4LzL/YZ08qw+MwioEEpWJ9jlBQpF+kND2ZR8+Aw/ThxCXtYeXq76hLQvA+Tq5Myygg/Z3MMAQX9BAIK6qZtApo5dGGf9HAuFIYx0Pw4XZgsWI9xiRWTKpXEX/07ojyNkBSu5cagSN+OtmkipkwZ3RHQ/bgM2H4855qAgM6ezdGw1yu+tF5Ac0c/Tk2TiPK6EtOEJEv7uGOkdmRkkZ2SXubEKy9jTYxIo8pTqWcSkVyv/nfR1pkKqLbkU8gSS7MQE9868nUcB+wi28WyUzW0FQIaDb8e6MC+dBi77Jxtm0pf6iDhGjdd59oBNBqarlVbm8Xdknp+N1OibQIqp3CzfbZHByfpXHvqtRBZn9mo/DFFGpQzPqLMzzUpPpNTo7HlsX3mSOH6nafQf4q4F22dkYAaFiDeHNFQWjfRVkQbBVS/AcgWOoaANo0moNyC1JNrL7s+eTGxbVN37Ukd6r5poqxvamiXaR9rm4V96vrdTIm2CCg7iYgdQ7SPd/pMpLEew0SMbPtV8doc08nBQVpJ83+VqC64POs+EQJazHTmrChnthFodgdq/fFyYiF+Vvx/JC4WLNwZs9v1OuUomFmU2LgoMtOuUcKWkYzkcylF1XPx5qJetU9yJ9PnNFldOFO4qfjd1SU8PamDve7sUWhQ+jZVfzcpJYMhjTaLf/2KmTWtEFDTYyzCPmUkp0dQ5X72NK/fMao4+T72IjxfyU4SCi2P6bMKAlr0nyzkasQ+0zHQQpwsP0IvAZWj2DRRxUaJcpUfaprI27U74aAIdEijzey8Jo6juFN3lJMJat4ubd9NGg2Zbfn5RTnZfYhLQLnIjb/xsm2z09k6VMF0/i5s6Vu/Nmdtmb2Aqilt0VQaE1DVuBcpcCKriKOeInWnb93H2F60YBYvXqTiy9OOjxZQc2pba/NsZ+FyYzDqXa5HBFrndkopCXIUzH4TkRYcgasc0UHZ9p1s84jggYRVQB03I9kNDv+d2Lb1pg5jhGhpR9BQTNlm+aa2mQjURzyJmhBQ0HYanYWbpVMtQlK7gHJ3mg4R55D2y8UtScypV/bmoXRQaop3EtGKbfZ1UICIbAKafV/2dKPthsXnZqbjdQRGoP7pW7XN/MSmkAi8LlziSQQBBTrNPsZSi0CGCLBjNmGUgJYCmKTcdsbR2drCpm1zRwMR9YYXUB/RKfeLE7ce1BE0BuqbvvUV/ObGQG3iSQQBBTqzEVDDD1Aaw2R+0FmEahJQZWavS0BJTRcVZaipKo+7X62ulBLTWCrTLmkMNE0YceWOzR8FQB7XC9NjLKwD52aJijdmpm3a7PK+1BEyC1cZBjHu4yv4mEQEusPMIlDuGVBNDJTZqNJsVi4FKx7vIaBsO5Q2SOlU1yxc25iQuF05r2GSCDcU6jNypkhW2BeRqBNNQNWZzlK6XP0O9Jsq68ztckCvH3Vo+1sEMk3cN3XWNks7QkBBp+jOm4gACABvIpoNabJ/JrdBQIEKBBT0EgjoLPBJ3/YHCChQgYCCXgIBBXUDAQUqEFDQS7CgNqiTZhbUBm0HAgp6yd7ep3R76z4MVpvt7X06tesVPrebQEABAKBh4HO7CQQUAAAapjafixWc7IQ+gugAAgoAAA3D+lz29aMdn/WsPuufUuXzLJ7d93qdJAQUAAD6hVlAuRfBdFxE2VdFxp4n8y7ykLpDtytAQAEAoGF8BdS+RnJCKbM9SYbS25/Et62JUZt13WKmrle5hdFJWeKRw0NAvYVs8ppJ82tY9bfgOd5OZ+tf9RiuTRBQAACYHfECanmlab5dWq9Y+9sc5enrFvOve5Q/spfJnlcFAU2T8nz0d52r71vXy7VuZ89ZrgcCCgAADeMnoMqqTKErWPkIl1a/fd1ibnF051iksx2eq0+5Vg2a9hKZBAEFAIDG8Z5EFLKARrCAWtYtNomtS3A42HY4Fhphi1FTyIqAc6uAuZa49BJQoZ1cwyCgAAAwO7xTuK7t0QLqWLfY0pYipcmlUL3aHfXojXkx9ugI3Xt7KbreAjo/Pw+DwWCwGmxtbc3pc2cqoK51i21tmTya4imCdQioaZF3qSw9pZydk+d2Q7uixkDX1tZgMBgMVpO5fO5sI1Cyr1tsbYvnmCVTR/kcaJiA2qJdeZu8Dm52Tsway9x2V9SNFC4AADRPt31uJqD7ZV1YEQgoAAA0TKd9rs+jKz0FAgoAAA3TXZ/r+ehKT4GAAgBAw8DndhMIKAAANAx8bjeBgAIAQMPA53YTCCgAADQMfG43gYACAEDDwOd2EwgoAAA0DHxuN4GAgl5y89YGLZ9docUfnt7Xtnx2hW7e2mj66wAO4HO7CQQU9JKN23do6+5O081onK27O3T95m+bbgZwAJ/bTSCgoJds3L7TdBNaAwS0/cDndhMIKOglENASCGj7gc/tJhBQ0EsgoCUQ0PYDn9tNIKDTJGqh2BbTofOZvYCmlBj7xrZt+kBA20+vfG6H/ERVAgRUXjdNW0DVuM6beozjrf0xx/jQxJfqXSfXtzWublDXuXfoh6ELqN7H8vJLVUUOAgrisQnoZO1Jcd3KNv8Im/ATdemPQLa4tr2vgwVUdDrSiuVE7gVbqbgYLCcRc4wPbRXQ/ItX19LbHA3r+5FAQEkTsfzHVZ8jgoCCeHifmy9UrTsHGvosXt0UTfmJOvSn3DPTuySxLhReSUCDVzw3fUaO7dwq66NEuaPIL7biTkM6aWWbtN12XFH90HCs43jnheS7FJBHHSPmDsx27jH92CcBJVLWMVS2K3e0mROzRbH58cL3UH6vat1yOdNeiBgC2n68fa4BOUrVBaKyDzP6F65+OTup1c1phOCHXh0NGT/s4Svr0J/yhPI2mL+DNBlUE9A0cTjYqQmoelem36mlibIPW6/7OO0ciShNFLExHR9zrvpOHnUo56oucGvs08B+7JuASte0sF07z5QS7he0OaKhJMBCX6WJ4CjEuhVHIJXhj5rSE00FAtp+rBGo4/pQfdamIkDVfZjdvzh1QD0rMXPJ+iFGtHwW7a5RQNOk/I1qWiKcc6UxUO1uwHkC+ZdlSz+4jvHtlNjO5KLdqtGy6fiYi8KnjjrOPeZ8WkR1ATXd+au/A04kXWWL33l2fcdEoT7iSQQB7QLmMVAmg+T6bVNKiSRQNfuwUP/D1mlvn3wT4Jmpq0N/jOXwAUl0BMrd1fAVK1++y1O4jjF+YaoQcWNegce5ogOv4ytGoDF1VBLQCufTIioJKBE/KSHfn0/NquWLwihsU1PDFdO4LvEkgoB2gZBZuNI4HjtRRhDZafgwTUCV403CxU3mMfmUmBv3OvSH9AjeljWqkMJVnYnpBAIdbtU7ppC2NB2Bcn1YRx2IQKuPgRKzn5YxsAmoQZx9sg6B2MSTCALaBYIeY3EJmGlf3+21RqAmnXBHyEXqlEuhep1LlL/ixF4ZG64jAi0bKHzWlID6jIGyg8ENj4FmB7Dp8HIWbkQd3Bge+90F9mOfBDS/dtloMk30H7w48UqKUg0CahRnPR21OUqm2qcQ0PbD+lyDOKo+Sfd1mzQaWsYoqaIPkz7jruehEgHLx+tjoLYbVyVlbaM2/WFuSAznXE1AqeiMASX/ZXoOZxYCWp6U92zagFm42gyz2mbhivvVWIfxohWOj+nHzguoLW2qRpP8mJPUj0nidYxrFq5zTKYiEND2Y4pAuWdAuWhM24+b9DI1/yJfz8MkYW401e0+Y7SeY5ZMHbH6Y4t25W35OXM79uqtGGBfglf5lUBA2w98Lkf8BLtZAQEFvQQCWgIBbT/wuQxTmC9QNxBQ0EsgoCUQ0PYDn6vi+5KZZoGAgl6CBbUzsKB2N2gEy+gAAACuSURBVIDP7SYQUNBL9vY+pdtb92Fb92lv79Omvw7gAD63m0BAAQCgYeBzuwkEFAAAGgY+t5tAQAEAoGHgc7sJBBQAABoGPrebGAUUBoPBYDCY2VgBnZ+fh8FgMBgMZjH7Mg4AAAAAYIGAAgAAABFAQAEAAIAIIKAAAABABBBQAAAAIAIIKAAAABABBBQAAACIAAIKAAAARAABBQAAACKAgAIAAAARQEABAACACP4f6iJULJlJIVkAAAAASUVORK5CYII=;" parent="1" vertex="1">
          <mxGeometry x="416" y="-782" width="303" height="116.88" as="geometry" />
        </mxCell>
        <mxCell id="i8enQgpJjUHrLjXavkXj-10" value="" style="endArrow=classic;html=1;entryX=0.5;entryY=1;entryDx=0;entryDy=0;exitX=0;exitY=0.5;exitDx=0;exitDy=0;" parent="1" source="0wuKLxErqsubGauQZ7MV-3" target="VX38q-8Tfx1qq0T2sIIn-2" edge="1">
          <mxGeometry width="50" height="50" relative="1" as="geometry">
            <mxPoint x="489" y="-599" as="sourcePoint" />
            <mxPoint x="307.5" y="-563" as="targetPoint" />
          </mxGeometry>
        </mxCell>
        <mxCell id="5vsALhy4jxdvNL-aHRcl-1" value="" style="shape=image;verticalLabelPosition=bottom;labelBackgroundColor=#ffffff;verticalAlign=top;aspect=fixed;imageAspect=0;image=data:image/png,iVBORw0KGgoAAAANSUhEUgAAAxIAAAFACAYAAAAoHUoeAAAgAElEQVR4nO2d32/b1v3++T/5X/gMWddd5YZA0fUHsGHFEAwYBqxDb2Lsi44XM6yh6NoZSBAMmSF0ReLBLtCmTpbFXa22ieHEsxwnsqJYii3LkhLPlTVnN8/3QiJFUiRFyuLhIc/zAh4klkjq/T46PDyPzjmkBjeFGcxpU5jPNwEAzfwFzGkXsFI3N9jAojaFOX0RzaGd4bmP7zGMDQBNrOhTWCz0/p3TZrDte8wpLBZ8PtQj9uHX3LG7P3PE+0PHj7h/YNmZ25rq71NfxLxVVmFiipozIYQQQggh0dGGX7J3PPudTkfHd5SR8OioDnV27UaibxKMxeAObv8YQUbC02xM0EgMH38SRqL/mjvGkEbi7DkTQgghhBASHQ8jAWwbU/0RhF4n1PFr9ygjYXZ8vWTt4zQS9s60fwfXvY8HaRyRGDJIrm04IkEIIYQQQiTE00hYnVtjxjUlCRhlJMxfyJ3mw+y8mscaNgXmfkEdXP8RAddxrWOctaM/4v1+Ofl+nmWqRhsJx+iM1z5+RuLMORNCCCGEEBIdbyMROEJgf8+p+fwjV8d+gNNgeIwuDHW6fbA6737x+aw1sMc+tpFwfb7XdKzA971NWG8EaBDvimtNyeD9C1ipexmBs+RMCCGEEEJIdHyMBAkHO+WEEEIIIURNaCSi4DdVKWjdBiGEEEIIIRmERiIigzUMoxaHE0IIIYQQkl1oJAghhBBCCCGRoZEghBBCCCGEREYDgO3tbYqiKIqiKIqiqNCyjMS5c+coiqIoiqIoiqJCyWEkCCGEEEIIISQMNBKEEEIIIYSQyNBIEEIIIYQQQiJDI0EIIYQQQgiJDI0EIYQQQgghJDI0EoQQQgghhJDI0EgQQgghhBBCIhPJSMzmcpFFCCGEEEIIyR6RjUSn0/HV6ekpXr58iW63i06nQyNBCCGEEEJIRhnLSFxfujGkb+/dx+X8P/Hu7z/FTuUZTk5OaCQIIYQQQgjJKGMbibvrRUv37m+h/fw/0H9xGf/32ge4cfs+ut2ueCNRz0PXdOTrY75PCCGEEEIICcWZjcTagy08re5j4Yt1/OC1D/Czd+dRrx94T22q56FrGjQPGYUJZEMjQQghhBBCiBDGNhLFR2VUqnsobu/g+PsO3vjVX3Du9Q9x86stlHZ2AoxEjB15GglCCCGEEEKEMJaR+PrbNXy7XsbV69+g/fw5vrxTxCtvfISf/mYep6enKBa3xjMS5vt5w3e0op7XXaMZtuN57m+g4D6+7fMLhua9LSGEEEIIIcSXsYzEk6e7+OXFv+Hc6x9ifbOKn/82j1ff+hif3y6i2+1ip/zkDEZCg2Z3DgUjsIPfMxb99z32LxgaND2PusfnFwzntvW8PtiWEEIIIYQQ4stYRmJt/QGe7Dbww5/8Ca+8+RFefetjvP3rv+L05f/Q6XSwW62Ot0bCy2iEMh92IxGwv9//LQowOCpBCCGEEELISMYyEqvffIfD1hH+MLeMH735MX789p/x9xsPrGdI7O/vn21qU6CRqCOvu43IuEbCy9RwDQUhhBBCCCGjGMtIfHf3Hh4/LqFSbWBm7kv88fItHH/fRavdRrPZQqNxGJORKMDQNOj2DUKNSHi8b3+dEEIIIYQQEokzPdn65OQEL1++xOnpKU5OToaedD1xI+Hx/vAaCY/RC3MdxIg1Er3taS4IIYQQQggZRWQjEVUOJrFGouC8o5NuGK4RB9exnbd8GnHXJrexIIQQQgghhHgRyUgQQgghhBBCCEAjQQghhBBCCBkDGglCCCGEEEJIZGgkCCGEEEIIIZGhkSCEEEIIIYREhkaCEEIIIYQQEhkaCUIIIYQQQkhkaCQIIYQQQgghkaGRIIQQQgghhESGRoIQQgghhBASGRoJZdjAojaFOX0RzcDtmljRpzCnTWHO2PA+hjaD7aHt7a8RNTHrwgWs1Aevbhv9+mSve/VFzFuvTaIOia6HPJ8IITLh3f4CcLW3ybRd1nXAS0PHJ2mCRkIZQjYe/QZnXr/g0SCYjccU5vPmUdjxIQPMi8ViwXylV2cWjRlnHSnM2C4gGTYSPJ8IIYJo5i+42pM+/fa293rSbVd/u5FGhqQFGgllCNd49BqiGWwXZjx+2Rg0HoPGgh0fYsNxwUL/YnQBK4X+v/36ZF7wBobjrMhpJHg+EUKEYY48uH7h7/3AY7Y/SbddNBJZg0ZCGcI0Hv0T3Niwtnf+stE/hrGIFd3sBLLjQ2y4L2QFcyTCWZ+cFzZ3HTLr6oXesdyvm3LUZa96GGZ793t+r7vh+UQIkY2AdtBqq5JuuwKMhHn9sOQyMPb39Rkssq2UAhoJZQjReJhDmfkmvE92s/HY6HUQJza/nWQHZ73ZNgamYvB/d93yMRKOi8ioi6GfGfHe3j4iEub/w/B8IoTIx1C75WiHgOTbLj8jYTumZ5yuv83psWwrE4dGQhlGNx69Bsg9/cSjM2frDC4W2PEhTnqjDTPY7tcR8wLWzF9wLvazLhijTACGp0zBXT9dxxixvXmxdU8B8Ht9GJ5PhBAJcbV9vu1OYm3XqKlNrlFh3zadbaUs0Egow6jGw+OkHDpxnR3AZv6CNbTJk5mYDC46/YXW5i9j5jSn/q9dg1/6RxsJq4PvIa9h9fDbh33dDc8nQoiM2NumgNGExNquESMS7kXhrjbd/7pBkoJGQhlGNB5DcxO95on7DD1yeJHYMY1C3rnA2lp4nXcv3htvRMLJ6BEJXxx3kArxul+MHmXA84kQIprBGrSA9Q2JtV0+RqLf3rrv+OeeysQRCfmgkVCG4MbD+7Zx7vtSuxsP+y+/PJmJie2i4rvAOej+4151ddSaiFHHcL7vuE2tbT6w3+u+OfJ8IoTIhtkpNwLuuJRY2xVsJByjHFpAm841EtJAI6EMrjvY2DSff+T7IBtnozLceAx+veDJTAZYDx/yvA2h+/UwRsL2uucvXyHu2uS5vdvwRLxrE88nQoh0BI0QJN12+a+RcD60bgYr7rUZlnmY4jRQiaCRIIQQQgghKYJTm2SBRoIQQgghhMjL0IiHx6gISQQaCUIIIYQQIjXDd+PjaIQM0EgQQgghhBBCIkMjQQghhBBCCIkMjQQhhBBCCCEkMjQShBBCCCGEkMjQSBBCCCGEEEIiQyNBCCGEEEIIiQyNBCGEEEIIISQyNBIBnDt3jlJY29vBd6hOOj6KUlGjzkuSHpKuSxRF+StsW0sjEcD29jaluFg/KEo+kWyQdD2iKCpYYaCRIIQQQgghhESGRoIQQgghhBASGRoJQgghhBBCSGRoJAghhBBCCCGRoZEghBBCCCGERIZGghBCCCGEEBIZGglCCCGEEEJIZGgkCCGEEEIIIZGhkSCEEEIIIYREhkaCEEIIIYQQEhkaCUIIIYQQQkhkaCQIIYQQQgghkaGRIIQQQgghhESGRoIQQgghhBASGRqJsdjAojaFuSFdwEp9eOttYwpz2gy2E4ih99kDLRYmGkToOJr5C7b3kikLi8JM731jY6JRBMfklXPQNv339EU0PbedCswhnjrnRTJ5xl+vo+QQZpvx8oz3vPEi2Xor5twchzDlMmJfq0zI2NQXMR+lrY/MqO+qiRVd1LmYNGauHmVrfg/6IppnPedTR8T+hsUk6o6c9Y9GYiy8Ghuzctkrk/mlx9h5DojB7ISYnaxe52tSDW74OJydgzguqmG/D8DxncTWsLlPdq/4Rm3j87c9ZrMxd+QRZ52TI08x9Tr5POM/byTJc+jYsnU6wpRLEAK+u/oi5qUqs5jwrTuTgkbCjtnWzuddpdFvm3qvn+WcTyNR+ht2YjISEpz7NBJj4d3YODs4Z/kFa1IxuHCc/EnFEUdDHCEGs3Mm4mIUePxR24RonOHuRMdd56LmEGabcfJ0EUu99ogx0TxFdGASzlPIuTkOYcolxP5xGYlMddJGQCMhFp/y9rzunKUNTxVj9L3iQpJzn0ZiLMIaiRlsx9bwRK/M8VT0qHGc9aJ8lhh638ViXtDFKPA7H7VNuMbZ7HyJqXNRcwizzTh5Oom/AZchzzjOG5/PSCRPUefmOETN2X8EY8U2JW+Q+6j37TH0NfRZon48SJiRHacQZTk0PcreuR21v1fb6vfdZIGAfKOMQgKBbXi6iPBDsn6hX9f8rstB5++oY7j3/X9YdB9fUJnTSIxF0NCWuyEXaSSCLnhhOglxxxFXZyhkDIWZ3jYiXLz911W/C0vgNtEaZ+ev8QJ/NUs0T9v2ceeaaJ4iTITz84XnKfLcHIdIOfsYCavD6p577n4/ZEfN/FvWMosDvzUSQ/Pzw/5a7vO+73cVdWpf+hn6oab/HQzaqLO24WkjTH/Da6qTX7tg/j2q3fDYJvFpvz1oJMbCPYXE65cNk5iNRKgYBotTk1psPRzLJCt3mBh628znm0IvvI5FwYELo93bpMRI9EkmzzjrtTdJ5Tk4rpipAWLzTObcHIdwOYdYUzE0khiwv0ed6HUY+nVB8jKbKBFGJLy/CxO/X4JHfVcRv5ss4MpxOD9FjUSI/kbg+jKv8ghce+JxDPf54PhbnKmlkRiLKF+Q2KlNnhH4LZgSHIfFxBuU0TH0ysDn5IudgLtf+G5zluHipObxis0z3nodhOjv0/meuHzF5JnsuTkOo3IObyS8OwzO/Z137nJqsYCUlNmEOLORGHQCHWUf+ruK+N1kAnuZ9PP3+jVe8alNo7fxrjteazjHNhL294dGjuKDRmIsUmQkYr+d4vhGYnINyqgY3L8+jf61ddKEmcfvPcdynAVsyS0IFJZnwrcJFft99kngQhx/nsmfm+MQnHP8IxIOaCRshCtLr/UpvlOTIo5IZJHB+WobPbSYQNuWKiZjJGIZkbCOcQGLhriRMRqJsUiLkfCaYzdpwo4GDE6YyT/jIKKZifvCO9TJ9agDI7cJ0TiPvI2moHUDwvMUUa9tJJRn/OeNHHk6kLFTPDJnn4u7x6/gnp3RyEbE532ZyiwuJmQk3OdY+O8q6neTEUwzZcx4tLtnPOdTx4SMRNg1EmGO4ShX29QrQWt1aCTGIh1Gwm/YVcTtX904HyAm4lkWAQho1IbLfjjn4G38FgGG+dVW3MUsiTzF1Ovk8wTiPm/kydNC0g7HyHJx3Lp2cey7Nvl3Rt3l6Dy3B/UkC7/4BuD7QLqwo0Puc2oGK445/6O+q+jfTTaw5+hzE5Vxz/nUMSkjYX/Nq2zDHcPr3DdfEzVSRiNBCCGEEEJIBhB9ExIaCUIIIYQQQlKPe8pU/NBIEEIIIYQQkmZsUyxF3pSDRoIQQgghhBASGRoJQgghhBBCSGQ8jcTR0RFFURRFURRFUZSvaCQoiqIoiqIoioosGgmKoiiKoqgMaGNjAwsLC5nXxsZG4mVN9UQjQVEURSmrrYePsHxrBZ9eW8q0lm+tYOvho8TLm4pXCwsLicegap4ymLgkDBaNBEVRFKWsqrVDNFpHsSxClIlG6wilyn7i5U3FKxk72KrkubCwgFqtltg5XqvVEikXGgmKoihKWVVrh4ld+EVDI5F9ydjBViXPhYWFpE9xGom0aTaXi6ysxsEY1IubeTLXLORJI6GWslBngyRjB1uVPGkkaCQiazaXQ6fT8dXp6SlevnyJbreLTqcTq5EIisOtuDrxsscg6vtIY9kxT+aqap40EmopC3U2SDJ2sFXJk0ZiLCPxBDfPT2FOewc3H7nee/QJrmpTmDv/CSpHq7hu/T/M8aYwd3HV9V7/GNr7WB/a3vaa+blD205eZoN0fenGkL69dx+X8//Eu7//FDuVZzg5OYndSHjFcX3pBhY++xKf3biF5X/cib0TL2sMIr+PNJYd82SuquZJI6GWslBngyRjB1uVPGkkxhyRqFx+B3PaFK5efuJ8b/l92+shjUTfBFw9/46HCTCNhP2z3Eai//fF1cH/R5qX8WVvkO6uFy3du7+F9vP/QP/FZfzfax/gxu376Ha7QoyEPY6760Xc//c2its7KJUruPPV10I68bLFIPr7SGPZMU/mqmqe3kaiAEPTka/7Xa7ryOsaND0P5yYFGJr79VHHCrvN2aGRyEadDdJQR7J0DbPT05iensb09CWsShBjLHlKIE8jUV9Czir/K1iP9xRPp5GwRgBcIwjrF+0jFeGMRM+UvI/15fc9RjkGRmLIOJh/m0akbzR6x/MYLZmQvBqktQdbeFrdx8IX6/jBax/gZ+/Oo14/EDK1yR3HRvExtktPUK7solp7htXCN0I78bLEIPr7SGPZMU/mqmqeYxmJeh66rkMf2qa3n67bXw8+VsHQoGkaNBoJ1tkJyNmRLOHa7DQurfb/Xr2E6dlrKEkQ52TzlEPDRqKOpdw0rpjuYf0KpnNLiPM0T6eR8JpeNGQcwhgJ+2hCb3vnKEf/GBc/wc3zU7i+7PHZ/VGQ3nsef09Y9gap+KiMSnUPxe0dHH/fwRu/+gvOvf4hbn61hdLOjjAjsfbgIe5vPsLmwxJK5Qp2qzXs7e/j4OAA99bWhHTiZYghye8jjWXHPJmrqnmOYyTqeR16vm79O7RfIQ/dKIQ6Vvhtzg6NRDbqbJAcHcnSNcxOz+Jayf53NkYlUmEk6kvITeewVLf/He+oREqNxGB6k9Vhd40MhDISjn28piWZRmK1ZxDOf4KKy0gMxeGYXjX5wjMbpK+/XcO362Vcvf4N2s+f48s7Rbzyxkf46W/mcXp6imJxS4iRWPz8JorbO3i8U8HT3RoODg7QarXQbrfRbrexGWMcMsWQ9PeRxrJjnsxV1TyjG4k68uaIQz0P3WcaU8Ew94/XSPRGM7zlhkYiG3U2SMNGwmYc3MYixUqPkbAZB7exCEnQA+i8thWd92Tu2uTqsA9PKRptJNz7+B7Dtv7h+rIcRuLJ01388uLfcO71D7G+WcXPf5vHq299jM9vF9HtdrFTfiLESHyxfBvlyi6e7e3h8PAQL168wPHxsaU445AphqS/jzSWHfNkrqrmGdlIFAxo1mhDb62E9ad9P2u7+EckwpgIgEYiK3U2SI6O5Ool17qIVVyikYg1JgfrV1zrItZxZQwjAXibCb/tROc9odu/2o1CwGiCr5HwmB41ZALsRqJvGvrTnJKe2rS2/gBPdhv44U/+hFfe/AivvvUx3v71X3H68n/odDrYrVaFGImbt1dQe7aHRqOBdruN4+NjdDodnJycxB6HTDEk/X2kseyYJ3NVNc+oRmKwpsEmz2lM5siFmKlNo0wEQCORlTobJI5IJBuTgwmNSJiMMhHmNqLznthzJAaLqwPWN/gZCcctW11yr7OwFnV7LL4eOTIyWZkN0uo33+GwdYQ/zC3jR29+jB+//Wf8/cYD65kF+/v7QozEyr9WrUbx6OgInU4H3W7XUpxxyBRD0t9HGsuOeTJXVfOMZiQKMDQDBd/XXPsVDGiGIWyNRJCJAGgkslJng8Q1EsnG5CCGNRKjbjGbaiNh/fp/MeCOSz5GwvsWsu5nVLiNxGC/pG//+t3de3j8uIRKtYGZuS/xx8u3cPx9F612G81mC43GoRAj8d3de9jcLKJU2sHT3V3s1+s4bDbRbLVij0O2GJL8PtJYdsyTuaqaZyQj4ZjWZGKf3uTer3+bWC62lkZZqLNB4l2bko3JCe/aFFFet2f1es+pq5fXfB9q5zQYw0ZiMJLhcccogQ+kM3VycoKXL1/i9PTUGh61K24jEVZxduJliiGp7yONZcc8mauqefobCfcUpvfwO11z3aWpRz2v958d4WEICkagkRiaKjX0bIrJQSORjTobpOGO5Cou8TkSwmIaZh1X+BwJyk+zuVxkZTUOxqBe3MyTuWYhTz7ZWi1loc4GScYOtip58snWNBIURVGUYqKRoLIkGTvYquRJI0EjQVEURSkmGgkqS5Kxg61KnjQSNBIURVGUYqrWDtFoHSV24RdFo3VEI6GAZOxgq5LnwsICarVaYud4rVajkaAoiqIokWo2n6PWeKGEms3niZc3Fa9k7GCrkufGxkbgU6hFaGNjQ3jeNBIURVEURVEZkAyd2ax2mClv0UhQFEVRFEVRFBVZNBIURVEURVEURUWWp5EghBBCCCGEkCBoJAghhBBCCCGRoZEghBBCCMkAladVLN9awafXljKr5VsrqDytJl3UpA+NBCGEEGVRoePFzpc6qPBcFPOZKLKRdFuS1DlOI0EIIURZVOh4AfJ2vshkUeVJ7TLW5aTbkqTOcRoJQgghyqJKxwuQs/NFJosq9VnGuixD2dNIpIzZXC6yshoHYxiftMYdFVXyBNTJNQt5ynDxF4WMnS/RZKHOBqFKfZaxLstQ9jQSKWM2l0On0wmtOI1E0Oeenp7i5cuX6Ha7scUhQ1nIUA7jIEPZiUCVPAF1cs1CnjJc/EUhY+dLNGm9ToRFlfosY12WoexTaCSaWNGnMKddwErd9VZ9EfPaFOb0RTSxgUXr/2GON4U5Y8P1Xv8Y2gy2h7a3v9Zj2/B+fZKYDdL1pRueWvjsS3x24xaW/3FHiJHwiuHbe/dxOf9PvPv7T7FTeYaTk5NYO/FJloUM5TAOMpSdCFTJE1An1yzkKcPFXxQydr5Ek9brRFhUqc8y1mUZyj6FRgJo5i9gTpvCfN5lEQozttdDGom++ZjXL3iYANNI2D/Ly0jYzIhAI3F3vejQ/X9vo7i9g1K5gjtffS3MSNhjuHd/C+3n/4H+i8v4v9c+wI3b99HtdmPvxCdVFjKUwzjIUHYiUCVPQJ1cs5Cn98W/AEPTkXf/QGZRR17XoOl5ODcpwNDcrwcdq7+9paDPPDsydr5Ek9brRFic9Vls/RKJjHXZsy2p56Fb5W+gEHMMqTQS1siDawShNyJgjlSEMxI9UzKD7cKMxyjHwEgMDILbSNi3ScZIrD3YwkbxMbZLT1Cu7KJae4bVwjfCjcTagy08re5j4Yt1/OC1D/Czd+dRrx8I7cSLLgsZymEcZCg7EaiSJ6BOrlnIcywjUc9D13XoQ9v09tN1++sBx6rnoRsF25+6hzmZHDJ2vkST1utEWBz1WXD9EomMdXm4Len94GB9BQUj9vJPp5HwHBVwG4cwRqJ/HGPD2t45ytE/hrGIFX0KiwWvz97AojaD7YApT5PE3iCtPXiI+5uPsPmwhFK5gt1qDXv7+zg4OMC9tTVhRqL4qIxKdQ/F7R0cf9/BG7/6C869/iFufrWF0s6OkE58UmUhQzmMgwxlJwJV8gTUyTULeY5jJOp5HXq+bv07tF/B3oEbNbph392I9VdLGTtfoknrdSIsgdNrYq5fIpGxLg+VfT3v/LGhnocec/mn1EgMpjctmqVjTlGyjEAII+HYp28EHNubRmKjN21KX0TT1zCINRKLn99EcXsHj3cqeLpbw8HBAVqtFtrtNtrtNjaLW0KMxNffruHb9TKuXv8G7efP8eWdIl554yP89DfzOD09RTHGOGQoCxnKYRxkKDsRqJInoE6uWcgzupGoI2+OONTz0H2mMRUMc//wRmKcX4w1x9QVp9zI2PkSTVqvE2EJMhIckYgXbyNhMw5uYxES2c/xydy1ybEewjQW9qlJo42Eex/fYxgbMI3CYkEOI/HF8m2UK7t4treHw8NDvHjxAsfHx5Z2yk+EGIknT3fxy4t/w7nXP8T6ZhU//20er771MT6/XUS32401DhnKQoZyGAcZyk4EquQJqJNrFvKMbCQKBjRrtME1dcG+n7VdSCPRn0ttjPFzZZgOBiBn50s0ab1OhMXXSJyhfsmIjHV5qOyHRoAijE66kPkcn9DtX+1GIWA0wddIeHT8XebEaST6RqM/zSlpI3Hz9gpqz/bQaDTQbrdxfHyMTqeDk5MTdDod7FarQozE2voDPNlt4Ic/+RNeefMjvPrWx3j713/F6cv/xR6HDGUhQzmMgwxlJwJV8gTUyTULeUY1EgXD45dBz2lM5shFmM5Db1GsfoaVsKM6GICcnS/RpPU6ERb/+ny2+iUbMtbluEYkTGQ9xyf2HInB4uqA9Q1+RsJcsO0l9zoLa1G31+JrE7FGYuVfq9YF9OjoCJ1OB91u19L+/r4QI7H6zXc4bB3hD3PL+NGbH+PHb/8Zf7/xwLondpxxyFAWMpTDOMhQdiJQJU9AnVyzkGc0I1GAMTTH2f6aa7+CAc0wRhiJyXXygjoYgJydL9Gk9ToRluH6nD0TAchZl0WskZDxHJ/cA+n6IwiLRsAdl3yMhPctZN3PqHAbicF+SRuJ7+7ew+ZmEaXSDp7u7mK/Xsdhs4lmq4Vms4VG41CIkfju7j08flxCpdrAzNyX+OPlWzj+votWux17HDKUhQzlMA4ylJ0IVMkTUCfXLOQZyUg4pjWZ2Kc3uffr3yZ2xO1fRXXyZOx8iSat14mweN3+NWsmApCzLvOuTWd+snXQCIH7tqwDzecf+T7Uzmkwho3EYCQjWSMRVnEbCVMnJyd4+fIlTk9PrakFccchQ1nIUA7jIEPZiUCVPAF1cs1CnkFTQZxTmN7D73TvTtlgEauHASkY/kaiYHjOfY6r4ydj50s0ab1OhMVRnwXXL5HIWJdHtyV8jgRxMZvLRVZW42AM45PWuKOiSp6AOrlmIU8ZnkYrChk7X6LJQp0NQpX6LGNdlqHsaSQIIYQQgchw8ReFjJ0vMllUqc8y1mUZyp5GghBCCBGIDBd/UcjY+SKTRZX6LGNdlqHsaSQIIYQQgVRrh2i0jpIOI3YarSMpO19kssjQmRWBjHU56bYkqXOcRoIQQoiydDr/Ra3xQgl1Ov9NurhJzCTdmRWBrKZYhrYkiXOcRoIQQgghJAPI0JnNaoeZeEMjQQghhBBCCIkMjQQhhBBCCCEkMp5G4ujoiKIoiqIoiqIoylc0EhRFURRFURRFRRaNBEVRFEVRVAa09fARlm+t4NNrS5nV8q0VbD18lHhZUz3RSFAURVHKSoWOFztf6kil278mXdZuJd2WJHWO00hQFEVRykqFjhcgb+eLmgWp1lAAACAASURBVHx9VgEZ63LSbUlS5ziNBEVRFKWsVOl4AXJ2vijW53GQsS7LUPY0EinTbC4XWVmNgzGoFzfzZK5ZyFOGi78oZOx8sc6yPo+DjHVZhrKnkUiZZnM5dDqd0IrTSCQdx6gYTk9P8fLlS3S73UzHkNbvj3kyV1XzlOHiLwoZO1+y1VlZrxOsz05krMsylH0KjcQT3Dw/hTntHdx85Hrv0Se4qk1h7vwnqByt4rr1/zDHm8LcxVXXe/1jaO9jfWj7wWvrF/v793V9Ob7CMxuk60s3PLXw2Zf47MYtLP/jjhAjkWQcQTF8e+8+Luf/iXd//yl2Ks9wcnKS2RjS+v0xT+aqap4yXPxFIWPnS6Y6K/N1gvXZiYx1WYayT6GROELl8juY06Zw9fIT53vL79teD2kk+ubj6vl3XIbhaHAMx2c5jYQZi2keeqbCw+RMSPYG6e560aH7/95GcXsHpXIFd776WpiRSCoOvxju3d9C+/l/oP/iMv7vtQ9w4/Z9dLvdzMaQ1u+PeTJXVfP0vvgXYGg68nW/y3UdeV2Dpufh3KQAQ3O/HnSs/nE0U0GfeXZk7HzJUmdlv06MV5/F1i+RyFiXPduSeh66Vf4GChksl7NPbTJHHlwjCM5OfDgj0TMC72N9+X0PAzAwEgOTMTwi4ZDDzEy+8LwapLUHW9goPsZ26QnKlV1Ua8+wWvhGuJEQHYdfDE+r+1j4Yh0/eO0D/OzdedTrB5mOIa3fH/NkrqrmOZaRqOeh6zr0oW16++m6/fWAY9Xz0I2C7U/dw5xMDhk7X7LUWdmvE2PVZ8H1SyQy1uXhtqRn5KyvoGDEXv7pNBKenXm3cQhjJPrHubhqbe80AP1jXPwEN8+bow7BRsI9QjFp2RuktQcPcX/zETYfllAqV7BbrWFvfx8HBwe4t7YmzEgkFYc9huKjMirVPRS3d3D8fQdv/OovOPf6h7j51RZKOzuZjiGt3x/zZK6q5jmOkajndej5uvXv0H4Fewdu1OiG48DQY/zVUsbOV5J1Nk3XibPVZzH1SyQy1uWhsq/nnT82CCj/lBoJjw67OUXJMgIhjIRjn75BcGxvGonV3kjD+U9QCTQSXmsqJiuzQVr8/CaK2zt4vFPB090aDg4O0Gq10G630W63sVncEmIkkozDjOHrb9fw7XoZV69/g/bz5/jyThGvvPERfvqbeZyenqKY8RjS+v0xT+aqap7RjUQdeXPEoZ6H7jONqWCY+4c3EgVDcxmT0QymrQzLjYydr6TqbNquE2erz+PXL1mRsS57GwmbcXAbi5DIfo5P5q5NrilEPWNhn5o02ki49/E9xsVVmEbj+rK/kTAXXYtYbP3F8m2UK7t4treHw8NDvHjxAsfHx5Z2yk+EGIkk4zBjePJ0F7+8+Dece/1DrG9W8fPf5vHqWx/j89tFdLvdzMeQ1u+PeTJXVfOMbCQKBjRrtME1dcG+n7XdaCNRz+tnmsMepoMByNn5SqrOpu06cZb6fNb6JSMy1uWhsi8YrnUREUYnXch8jk/o9q92oxAwmuBrJDwMwdD6BruR6BuN/jQnt5HwXQA+YZkN0s3bK6g920Oj0UC73cbx8TE6nQ5OTk7Q6XSwW60KMRJJxmHGsLb+AE92G/jhT/6EV978CK++9THe/vVfcfryf0rEkNbvj3kyV1XzjGokCobHL4Oe05jMkYsInYehjkd4RnUwADk7X0nV2bRdJ85Wn89ev2RDxroc14iEiazn+MSeIzFYXB2wvsHPSJgLtr3kXmdhLer2Wnx9ZBmQ4dvHTl5mg7Tyr1XrAnp0dIROp4Nut2tpf39fiJFIMg4zhtVvvsNh6wh/mFvGj978GD9++8/4+40H1n25sx5DWr8/5slcVc0zmpEowBjqiNlfc+1XMKAZRsQ1EmfraAQhY+crqTqbtuvE2erzZOqXTMhYl0WskZDxHJ/cA+n6HfjrFwPuuORjJLxHENzPqHAbicF+AyNhmov4bvlql9kgfXf3HjY3iyiVdvB0dxf79ToOm000Wy00my00GodCjESScdhjePy4hEq1gZm5L/HHy7dw/H0XrXZbiRjS+v0xT+aqap6RjIRjWpOJfXqTez/z9pv+06Tsh+Ndm8TW2TRdJ8aqz4Lrl0hkrMu8a9OZn2ztM0Iw9J5TVy+v+T7Uzmkwho3EYCTD+RyJ4c+I9/avYRW3kUgyDncMJycnePnyJU5PT63pDSrEkNbvj3kyV1Xz9DcS7ilM7+F3uvdi1UEHzcOAFAx/I+G4x3z895mXsfOVdJ1Ny3VirPosuH6JRMa6PLot4XMkKJdmc7nIymocjEG9uJknc81CnjI8jVYUMna+WGdZn8dBxrosQ9nTSFAURVGUQMlw8ReFjJ0vivV5HGSsyzKUPY0ERVEURQmUDBd/UcjY+aJYn8dBxrosQ9nTSFAURVGUQFVrh2i0jhK78Iui0TqSsvNFTb4+q4CMdTnptiSpc5xGgqIoilJWzeZz1BovlFCz+Tzx8qbiVdKdWRHIaoplaEuSOMdpJCiKoiiKojIgGTqzWe0wU96ikaAoiqIoiqIoKrJoJCiKoiiKoiiKiixPI0EIIYQQQgghQdBIEEIIIYQQQiJDI0EIIYQQkgEqT6tYvrWCT68tZVbLt1ZQeVpNuqhJHxoJQgghyqJCx4udL3VQ6favspF0W5LUOU4jQQghRFlU6HgB8na+yGRR6YF0spF0W5LUOU4jQQghRFlU6XgBcna+yGQJW581TYs5kniRsS7L0JbQSKSM2VwusrIaB2MYn7TGHRVV8gTUyTULecpw8ReFjJ0v0WShzgZBI5EcMrQlNBIpYzaXQ6fTCa04jUTScaQhhtPTU7x8+RLdbjfW7yMqMpSdCFTJE1An1yzkKcPFXxQydr5Ek9brRFhoJJJDhrYkhUaiiRV9CnPaBazUXW/VFzGvTWFOX0QTG1i0/h/meFOYMzZc7/WPoc1ge2j7wWvN/IXe/kPbTh6zQbq+dMNTC599ic9u3MLyP+4IMRJJxiF7DN/eu4/L+X/i3d9/ip3KM5ycnEhzgZCh7ESgSp6AOrlmIU8ZLv6ikLHzJZq0XifCQiORHDK0JSk0EoOO+3zeZREKM7bXQxqJvvmY1y94mADTSNg/y2Uk+p/ZMyFhzcv42Buku+tFh+7/exvF7R2UyhXc+eprYUYiqThkjuHe/S20n/8H+i8u4/9e+wA3bt9Ht9uV5gIhQ9mJQJU8AXVyzUKe3hf/AgxNR979A5lFHXldg6bn4dykAENzvz7qWOZmBrQw250BGTtfoknrdSIsvp1ZV/2ikZg8nmVfz0PXNGiaBk0zUIg5hlQaCWvkwTWCsG3YRyrCdep7pmQG24UZj1GOgZEYmIzhEQnb0QLemwxeDdLagy1sFB9ju/QE5couqrVnWC18I9xIiI5D5hieVvex8MU6fvDaB/jZu/Oo1w+k6tTIUHYiUCVPQJ1cs5DnWEainoeu69CHtuntp+v210MYCauzQSMRN2m9ToQluDNLIxEnw2Xf+8HBMN1DwfD48WGypNNIeHbY3cYhjJHoH8c2muAc5egfw1jEij6FxYLfZ7u3d0+Rmhz2BmntwUPc33yEzYcllMoV7FZr2Nvfx8HBAe6trQkzEknFIVsMxUdlVKp7KG7v4Pj7Dt741V9w7vUPcfOrLZR2dqS6QMhQdiJQJU9AnVyzkOc4RqKe16Hn69a/Q/sV8tAHvYcRRsJ8P+TIxRmQsfMlmrReJ8IyXJ+96xeNxOQZKvt63vljQz0PPeZRiZQaicH0pkWzdMwpSpYRCGEkHPv0DYJje5sxKMz03/MzEvGbCGDQIC1+fhPF7R083qng6W4NBwcHaLVaaLfbaLfb2CxuCTESScYhUwxff7uGb9fLuHr9G7SfP8eXd4p45Y2P8NPfzOP09BTFmL+PqMhQdiJQJU9AnVyzkGd0I1FH3hxxqOeh+0xjKhjm/qOOZf5iOZ6R0KxpE8NyI2PnSzRpvU6ExVmf/esXjcTk8TYSNuPgNhYhkf0cn8xdmxzrIUxjYZ+aNNpIuPfxPYaxAdNoLBaCpy85p1dNHrNB+mL5NsqVXTzb28Ph4SFevHiB4+NjSzvlJ0KMRJJxyBTDk6e7+OXFv+Hc6x9ifbOKn/82j1ff+hif3y6i2+3G/n1ERYayE4EqeQLq5JqFPCMbiYIBzRptcE1dsO9nbed/rIKh2Y41/ohEmA4GIGfnSzRpvU6ExV6fg+oXjcTkGWpLCoZrXUQ2z/EJ3f7VbhQCRhN8jYSHIXCZE/coQzN/wZrm5LsOYugYk8VskG7eXkHt2R4ajQba7TaOj4/R6XRwcnKCTqeD3WpViJFIMg6ZYlhbf4Anuw388Cd/witvfoRX3/oYb//6rzh9+T8h30dUZCg7EaiSJ6BOrlnIM6qRKBgevwx6dtbMkQu/Y/UXbHt0EAbGJDyjOhiAnJ0v0aT1OhGWQX0Orl80EpMnrhEJE1nP8Yk9R2Lw63/A+gY/I2Eu2PaSe52FNV3Ja/G1i76RWByjUQ6D2SCt/GvVuoAeHR2h0+mg2+1a2t/fF2IkkoxDphhWv/kOh60j/GFuGT9682P8+O0/4+83Hlj3Bo/7+4iKDGUnAlXyBNTJNQt5RjMSBRhDc5ztr7n2KxjQDCPkr5BnXyMxqnMoY+dLNGm9ToTF/xakHJGIGxFrJGQ8xyf3QDqz024E3HHJx0h430LW/YyK4XUPg2dG9IyE+zg9cxP/XZu+u3sPm5tFlEo7eLq7i/16HYfNJpqtFprNFhqNQyFGIsk4ZIvh8eMSKtUGZua+xB8v38Lx91202m0h30dUZCg7EaiSJ6BOrlnIM5KRcExrMgla52D+KizGSIxCxs6XaNJ6nQgLjURy8K5NZ36yddAIgf09p+bzj3wfauc0Bh4LqK2RjMHn9cyDqfjWRwDyPNVVhjhkjOHk5AQvX77E6empNcVCxPcRFRnKTgSq5Amok2sW8vQ3Eu4pIe/hd7rmuktTj3pe73cQPMxA6OdD0EiIIK3XibDQSCTH6LaEz5EgLmZzucjKahyMYXzSGndUVMkTUCfXLOQpw9NoRSFj50s0WaizQfDJ1skhQ1tCI0EIIYQIRIaLvyhk7HyRyUIjkRwytCU0EoQQQohAZLj4i0LGzheZLDQSySFDW0IjQQghhAikWjtEo3WUdBix02gdSdn5IpNFhs6sCGSsy0m3JUmd4zQShBBClKXT+S9qjRdKqNP5b9LFTWIm6c6sCGQ1xTK0JUmc4zQShBBCCCEZQIbObFY7zMQbGglCCCGEEEJIZGgkCCGEEEIIIZHxNBJHR0cURVEURVEURVG+opGgKIqiKIqiKCqyaCQoiqIoiqIyoI2NDSwsLGReGxsbiZc11RONBEVRFKWsth4+wvKtFXx6bSnTWr61gq2HjxIvbypeLSwsJB6DqnnKYOKSMFg0EhRFUZSyUuG++8Dg3vtJlzcVr2TsYKuS58LCAmq1WmLneK1WS6RcaCQoiqIoZaXKk4AB0EgoIBk72KrkubCwkPQpTiORNs3mcpGV1TgYg3pxM0/mmoU8aSTUUhbqbJBk7GCrkieNBI1EZM3mcuh0OqEVp5FIOg7GoF7czJO5ZiFPGgm1lIU6GyQZO9iq5EkjMZaReIKb56cwp72Dm49c7z36BFe1Kcyd/wSVo1Vct/4f5nhTmLu46nqvfwztfawPbW9/ra/l932OMzmZDdL1pRueWvjsS3x24xaW/3FHiJFIMg7GoF7czJO5ZiFPGgm1lIU6GyQZO9iq5EkjMeaIROXyO5jTpnD18hPne/2OfO/1kEaibz6unn/HwxyYRsL+WX5GIsiQTE72BunuetGh+//eRnF7B6VyBXe++lqYkUgqDsagXtzMk7lmIU9vI1GAoenI1/0u13XkdQ2anodzkwIMzf36qGOF3ebs0Ehko84GaagjWbqG2elpTE9PY3r6ElYliDGWPCWQp5GoLyFnlf8VrMd7iqfTSFgjD64O+/pF+0hFOCPRMyXvY335fY9RjoGRGBgHHyNhjkYkYCTWHmxho/gY26UnKFd2Ua09w2rhG+FGQnQcjEG9uJknc81CnmMZiXoeuq5DH9qmt5+u218PPlbB0KBpGjQaCdbZCcjZkSzh2uw0Lq32/169hOnZayhJEOdk85RDw0aijqXcNK6Y7mH9CqZzS4jzNE+nkfDszLuNQxgj0T/OxVVre+coR/8YFz/BzfNTuL7s99m9165f9jY4k5S9QVp78BD3Nx9h82EJpXIFu9Ua9vb3cXBwgHtra8KMRFJxMAb14maezDULeY5jJOp5HXq+bv07tF8hD90ohDpW+G3ODo1ENupskBwdydI1zE7P4lrJ/nc2RiVSYSTqS8hN57BUt/8d76hESo3EYHpTr3N/NJiiZBmBEEbCsU/fIDi2N43Eam/E4fwnqHgZCfM9n5GSScpskBY/v4ni9g4e71TwdLeGg4MDtFottNtttNttbBa3hBiJJONgDOrFzTyZaxbyjG4k6sibIw71PHSfaUwFw9w/XiPRG83wlhsaiWzU2SANGwmbcXAbixQrPUbCZhzcxiIkQQ+g89pWdN6TuWuTYz2EaSzsU5NGGwn3Pr7HuLgKa9Rh2W0kbCMZAo3EF8u3Ua7s4tneHg4PD/HixQscHx9b2ik/EWIkkoyDMagXN/NkrlnIM7KRKBjQrNGG3loJ60/7ftZ28Y9IhDERAI1EVupskBwdydVLrnURq7hEIxFrTA7Wr7jWRazjyhhGAvA2E37bic57Qrd/tRuFgNEEXyPhM7LgNarRNwaVy+9Y05zM/aw1FkdHQo3EzdsrqD3bQ6PRQLvdxvHxMTqdDk5OTtDpdLBbrQoxEknGwRjUi5t5Mtcs5BnVSAzWNNjkOY3JHLkQM7VplIkAaCSyUmeDxBGJZGNyMKERCZNRJsLcRnTeE3uOxGBxdcD6Bj8jYXb6veReZ2EZA/fia9udmtyKyUyYDdLKv1atxujo6AidTgfdbtfS/v6+ECORZByMQb24mSdzzUKe0YxEAYZmoOD7mmu/ggHNMIStkQgyEQCNRFbqbJC4RiLZmBzEsEZi1C1mU20kzBGE6xcD7rjkYyS8byHrfkaF20gM9vN8joTAEYnv7t7D5mYRpdIOnu7uYr9ex2GziWarhWazhUbjUIiRSDIOxqBe3MyTuWYhz0hGwjGtycQ+vcm9X/82sVxsLY2yUGeDxLs2JRuTE961KaK8bs/q9Z5TVy+v+T7Uzmkwho3EYCQjWSMRVnEbiSTjYAzqxc08mWsW8vQ3Eu4pTO/hd7rmuktTj3pe7z87wsMQFIxAIzE0VWro2RSTg0YiG3U2SMMdyVVc4nMkhMU0zDqu8DkSlJ9mc7nIymocjEG9uJknc81CnnyytVrKQp0NkowdbFXy5JOtaSQoiqIoxUQjQWVJMnawVcmTRoJGgqIoilJMNBJUliRjB1uVPGkkaCQoiqIoxVStHaLROkrswi+KRuuIRkIBydjBViXPhYUF1Gq1xM7xWq1GI0FRFEVRItVsPket8UIJNZvPEy9vKl7J2MFWJc+NjY3Ap1CL0MbGhvC8aSQoiqIoiqIyIBk6s1ntMFPeopGgKIqiKIqiKCqyaCQoiqIoiqIoioosTyNBCCGEEEIIIUHQSBBCCCGEEEIiQyNBCCGEEJIByuVy4guhRahcLidd1KQPjQQhhBBlqTytYvnWCj69tpRpLd9aQeVpNeniJjGzsCDfbVHj0MJC8g9/cyODiUvCYNFIEEIIURbVHkhHsg2NRHIsLMjxQDrR0EgQQghRlmrtMOkQhEEjkX1oJJJDhphoJFLGbC4XWVmNgzGMT1rjjooqeQLq5JqFPGkk1CILdTYIGonkkCEmGomUMZvLodPphFacRiLpOBjD+KQ17qiokiegTq5ZyJNGQi2yUGeDoJFIDhliSqGRaGJFn8KcdgErdddb9UXMa1OY0xfRxAYWrf+HOd4U5owN13v9Y2gz2B7a3vZaYaa3vyWP2CaE2SBdX7rhqYXPvsRnN25h+R93hBiJJONgDOOT1rijokqegDq5ZiFPGgm1yEKdDYJGIjlkiCmFRgJo5i9gTpvCfN5lEfod+t7rIY1E33zM6xdchgGDYzg+a9hI9OKJzzzYsTdId9eLDt3/9zaK2zsolSu489XXwoxEUnEwhvFJa9xRUSVPQJ1cs5Cnt5EowNB05H2vI3XkdQ2anodzkwIMzf36qGOF3ebs0Ehko84GMWQkStcwOz2N6elpTE9fwqoEJkApI1FfQs4q/ytYTyKGmDn71CZz5ME1grBt2EcDwhmJngmYwXZhxsMMDIzEwDi4jYTHCEWMeDVIaw+2sFF8jO3SE5Qru6jWnmG18I1wIyE6DsYwPmmNOyqq5Amok2sW8hzLSNTz0HUd+tA2vf103f568LEKhgZN06DRSAghC3U2CKeRKOHa7DQurfb/Xr2E6dlrKElgBNQwEnUs5aZxxXQP61cwnVtCnKd5Oo2EZ+fdbRzCGIn+cYwNa3vnKEf/GMYiVvQpLBa8PttuNnrqbRcP9gZp7cFD3N98hM2HJZTKFexWa9jb38fBwQHura0JMxJJxcEYxietcUdFlTwBdXLNQp7jGIl6Xoeer1v/Du1XyEM3Cs7XOCIhBVmos0E4jETpGmanZ3GtZP87G6MSqTAS9SXkpnNYqtv/jndUIqVGYjC9yeq0m1OULCMQwkg49ukbBMf2ppHY6E2b0hfRdBsJx3Qq96jI5DEbpMXPb6K4vYPHOxU83a3h4OAArVYL7XYb7XYbm8UtIUYiyTgYw/ikNe6oqJInoE6uWcgzupGoI2+OONTz0H2mMRUMc/94jURvNMNbbmgkslFngxg2Ejbj4DYWKVZ6jITNOLiNRYTj+mlkDAKYzF2bXB344XUKo42Eex/fYxgbMI3GYmHEVCZXXJPGbJC+WL6NcmUXz/b2cHh4iBcvXuD4+NjSTvmJECORZByMYXzSGndUVMkTUCfXLOQZ2UgUDGjWaENvrYT1p30/a7v4RyTCmAiARgLIRp0NwmEkVi+51kWs4hKNRGwMxbR+xbUuYh1XxjAS5rFHmQjPGAQwodu/2o1CwGiCr5Hwv/vS0KhGfy1GM3/BmuaUtJG4eXsFtWd7aDQaaLfbOD4+RqfTwcnJCTqdDnarVSFGIsk4GMP4pDXuqKiSJ6BOrlnIM6qRGKxpsMlzGpM5ciFmatMoEwHQSADZqLNBcEQiOeIakbAfP8hEeMYggIk9R2IwjShgfYOfkTAXbHvJvc7CWtTttfjahSAjsfKvVasxOjo6QqfTQbfbtbS/vy/ESCQZB2MYn7TGHRVV8gTUyTULeUYzEgUYmoGC72uu/QoGNMMQtkYiyEQANBJANupsEFwjkRwi1kiMyjvVRsLstC8aAXdc8jES3reQdT+jwm0kBvsFr5GI7w5OZoP03d172NwsolTawdPdXezX6zhsNtFstdBsttBoHAoxEknGwRjGJ61xR0WVPAF1cs1CnpGMhGNak4l9epN7v/5tYrnYWhqyUGeD4F2bkoN3bTrzk62DRgiG76Zkaj7/yPehdk6DMWwkBiMZ7udIxP8wOkCeJ2TKEAdjGJ+0xh0VVfIE1Mk1C3n6Gwn3FKb38Dtdc92lqUc9r/efHeFhCApGoJEYmio19GyKyUEjkY06G8TwA+lWcYnPkRCCd0zruMLnSBA/ZnO5yMpqHIxhfNIad1RUyRNQJ9cs5MknW6tFFupsEHyydXLIEBONBCGEECIQGgmSJWgkkkOGmGgkCCGEEIHQSJAsQSORHDLERCNBCCGECKRaO0SjdZR0GLHTaB3RSCgAjURyLCwsoFarJfb5tVqNRoIQQggRSafzX9QaL5RQp/PfpIubxAyNRHKUy+XAp1CLULlcFp43jQQhhBBCSAaQoTOb1Q4z8YZGghBCCCGEEBIZGglCCCGEEEJIZDyNRNJz3yiKoiiKoiiKkls0EhRFURRFURRFRRaNBEVRFEVRVAa0sbGR+EJoEdrY2Ei8rKmeaCQoiqIoZbX18BGWb63g02tLmdbyrRVsPXyUeHlT8WphQZ3bvyYdg1symLgkDBaNBEVRFKWsVHsgXdLlTcUrGTvYquS5sCDHA+lE500jQVEURSmrau0wsQu/aGgksi8ZO9iq5LmwkPxD8mgkUqbZXC6yshoHY1AvbubJXLOQJ42EWspCnQ2SjB1sVfKkkaCRiKzZXA6dTie04jQSScfBGNSLm3ky1yzkSSOhlrJQZ4MkYwdblTxpJMYyEk9w8/wU5rR3cPOR671Hn+CqNoW585+gcrSK69b/wxxvCnMXV13v9Y+hvY/1oe29Xuvp6uUnsRWe2SBdX7rhqYXPvsRnN25h+R93hBiJJONgDOrFzTyZaxbypJFQS1mos0GSsYOtSp40EmOOSFQuv+PdYV9+3/Z6SCPRNx9Xz7/jMgdHg2M4PsttJPp/9z9n/aKPyZmQ7A3S3fWiQ/f/vY3i9g5K5QrufPW1MCORVByMQb24mSdzzUKe3kaiAEPTka/7Xa7ryOsaND0P5yYFGJr79VHHCrvN2aGRyEadDdJQR7J0DbPT05iensb09CWsShBjLHlKIE8jUV9Czir/K1iP9xRPp5GwRh5cIwjOTnw4I9EzJe9jffl9DwMwMBJDxsH82zQiMY5C2OXVIK092MJG8TG2S09QruyiWnuG1cI3wo2E6DgYg3pxM0/mmoU8xzIS9Tx0XYc+tE1vP123vx58rIKhQdM0aDQSrLMTkLMjWcK12WlcWu3/vXoJ07PXUJIgzsnmKYeGjUQdS7lpXDHdw/oVTOeWEOdpnk4j4Tm9yG0cwhiJ/nEurlrbOw1B/xgXP8HN81O4vuzx2f1RkN578cveIK09eIj7m4+w+bCEUrmC3WoNe/v7ODg4wL21NWFGIqk4GIN6cTNP5pqFPMcxEvW8Dj1ft/4d2q+Qh24UoPxc4gAAC2tJREFUQh0r/DZnh0YiG3U2SI6OZOkaZqdnca1k/zsboxKpMBL1JeSmc1iq2/+Od1QipUZiML3J6sAPjQyEMBKOfZxTlBzHuLjaMwznP0HFZSR6cbyD6xffsdZIxGkqzAZp8fObKG7v4PFOBU93azg4OECr1UK73Ua73cZmcUuIkUgyDsagXtzMk7lmIc/oRqKOvDniUM9D95nGVDDM/eM1Er3RDG+5oZHIRp0N0rCRsBkHt7FIsdJjJGzGwW0sQhL0ADqvbUXnPZm7NjnWQww69IOpSaONhHsf32NcXIVpNK4vexmJwTQrUWskvli+jXJlF8/29nB4eIgXL17g+PjY0k75iRAjkWQcjEG9uJknc81CnpGNRMGAZo029NZKWH/a97O2i39EIoyJAGgkslJng+ToSK5ecq2LWMUlGolYY3KwfsW1LmIdV8YwEoC3mfDbTnTeE7r9q90oBIwm+BoJj+lRLnPiNBJ909Cf5uQ7tSnmqU5mg3Tz9gpqz/bQaDTQbrdxfHyMTqeDk5MTdDod7FarQoxEknEwBvXiZp7MNQt5RjUSgzUNNnlOYzJHLsRMbRplIgAaiazU2SBxRCLZmBxMaETCZJSJMLcRnffEniMx+PU/YH2Dn5EwF2x7yb3OwlrU7bH4un8c0UZi5V+rVmN0dHSETqeDbrdraX9/X4iRSDIOxqBe3MyTuWYhz2hGogBDM1Dwfc21X8GAZhjC1kgEmQiARiIrdTZIXCORbEwOYlgjMeoWs6k2Elan/WLAHZd8jIT3LWTdz6hwGwnbVCb3XZwET2367u49bG4WUSrt4OnuLvbrdRw2m2i2Wmg2W2g0DoUYiSTjYAzqxc08mWsW8oxkJBzTmkzs05vc+/VvE8vF1tIoC3U2SLxrU7IxOeFdmyLK6/asXu85dfXymu9D7ZwGY9hIDEYyPO4YpcVrIo6O5HlCpgxxMAb14maezDULefobCfcUpvfwO11z3aWpRz2v958d4WEICkagkRiaKjX0bIrJQSORjTobpOGO5Cou8TkSwmIaZh1X+BwJyk+zuVxkZTUOxqBe3MyTuWYhTz7ZWi1loc4GScYOtip58snWNBIURVGUYqKRoLIkGTvYquRJI0EjQVEURSkmGgkqS5Kxg61KnjQSNBIURVGUYqrWDtFoHSV24RdFo3VEI6GAZOxgq5LnwsICarVaYud4rVajkaAoiqIokWo2n6PWeKGEms3niZc3Fa9k7GCrkufGxkbgU6hFaGNjQ3jeNBIURVEURVEZkAyd2ax2mClv0UhQFEVRFEVRFBVZNBIURVEURVEURUWWp5EghBBCCCGEkCBoJAghhBBCCCGRoZEghBBCCMkA5XI58YXQIlQul5MuatKHRoIQQoiyVJ5WsXxrBZ9eW8q0lm+toPK0mnRxk5hZWJDvtqhxaGEh+Ye/uZHBxCVhsGgkCCGEKItqD6Qj2YZGIjkWFuR4IJ1oaCQIIYQoS7V2mHQIwqCRyD40EskhQ0w0EiljNpeLrKzGwRjGJ61xR0WVPAF1cs1CnjQSapGFOhsEjURyyBATjUTKmM3l0Ol0QitOI5F0HIxhfNIad1RUyRNQJ9cs5EkjoRZZqLNB0EgkhwwxpdBINLGiT2FOu4CVuuut+iLmtSnM6YtoYgOL1v/DHG8Kc8aG673+MbQZbA9t33utmb/Q29elxcIYqYXAbJCuL93w1MJnX+KzG7ew/I87QoxEknEwhvFJa9xRUSVPQJ1cs5AnjYRaZKHOBkEjkRwyxJRCIzHovM/nXRahMGN7PaSR6JuPef2CyzBgcAzHZzmNhCuygPcmg71BurtedOj+v7dR3N5BqVzBna++FmYkkoqDMYxPWuOOiip5AurkmoU8vY1EAYamI+/+gcyijryuQdPzcG5SgKG5Xx91rLDbnB0aiWzU2SCGjETpGmanpzE9PY3p6UtYlcAEKGUk6kvIWeV/BetJxBAzZ5/aZI48uEYQtg37SEU4I9EzJTPYLsx4jHIMjMTAHPibBdPgxDUaAXg3SGsPtrBRfIzt0hOUK7uo1p5htfCNcCMhOg7GMD5pjTsqquQJqJNrFvIcy0jU89B1HfrQNr39dN3+evCxCoYGTdOg0UgIIQt1NginkSjh2uw0Lq32/169hOnZayhJYATUMBJ1LOWmccV0D+tXMJ1bQpyneTqNhGdn3m0cwhiJ/nGMDWt75yhH/xjGIlZ00yD4GYmwU6nOhr1BWnvwEPc3H2HzYQmlcgW71Rr29vdxcHCAe2trwoxEUnEwhvFJa9xRUSVPQJ1cs5DnOEainteh5+vWv0P7FfLQjYLzNY5ISEEW6mwQDiNRuobZ6VlcK9n/zsaoRCqMRH0Juekclur2v+MdlUipkfD49d+comQZgRAde8c+fYPg2N40Ehu9aVP6Ipp+RsIxrSo+zAZp8fObKG7v4PFOBU93azg4OECr1UK73Ua73cZmcUuIkUgyDsYwPmmNOyqq5Amok2sW8oxuJOrImyMO9Tx0n2lMBcPcP14j0RvN8JYbGols1Nkgho2EzTi4jUWKlR4jYTMObmMR4bh+GhmDACZz1yZXx71nLOxTk0YbCfc+vscwNmAajcWCt5FwTquKD7NB+mL5NsqVXTzb28Ph4SFevHiB4+NjSzvlJ0KMRJJxMIbxSWvcUVElT0CdXLOQZ2QjUTCgWaMNvbUS1p/2/azt4h+RCGMiABoJIBt1NgiHkVi95FoXsYpLNBKxMRTT+hXXuoh1XBnDSJjHHmUiPGMQwIRu/2o3CgGjCb5GwsMQDI0q2I1E32j0pzkFT6uKD7NBunl7BbVne2g0Gmi32zg+Pkan08HJyQk6nQ52q1UhRiLJOBjD+KQ17qiokiegTq5ZyDOqkRisabDJcxqTOXIhZmrTKBMB0EgA2aizQXBEIjniGpGwHz/IRHjGIICJPUdiMAoQsL7Br3NvLtj2knudhbWo22vxNXwXf8eB2SCt/GvVaoyOjo7Q6XTQ7XYt7e/vCzESScbBGMYnrXFHRZU8AXVyzUKe0YxEAYZmoOD7mmu/ggHNMIStkQgyEQCNBJCNOhsE10gkh4g1EqPyTrWRMEcQFo2AOy75GAnvW8i6n1HhNhL250YEjWTEh9kgfXf3HjY3iyiVdvB0dxf79ToOm000Wy00my00GodCjESScTCG8Ulr3FFRJU9AnVyzkGckI+GY1mRin97k3q9/m1gutpaGLNTZIHjXpuTgXZvO/GRrnxGCofecms8/8n2ondNgDBuJwUhGskYirOI2EknGwRjGJ61xR0WVPAF1cs1Cnv5Gwj2F6T38Ttdcd2nqUc/r/WdHeBiCghFoJIamSg09m2Jy0Ehko84GMfxAulVc4nMkhOAd0zqu8DkSxI/ZXC6yshoHYxiftMYdFVXyBNTJNQt58snWapGFOhsEn2ydHDLERCNBCCGECIRGgmQJGonkkCEmGglCCCFEIDQSJEvQSCSHDDHRSBBCCCECqdYO0WgdJR1G7DRaRzQSCkAjkRwLCwuo1WqJfX6tVqORIIQQQkTS6fwXtcYLJdTp/Dfp4iYxQyORHOVyOfAp1CJULpeF500jQQghhBCSAWTozGa1w0y8oZEghBBCCCGERIZGghBCCCGEEBIZGglCCCGEEEJIZGgkCCGEEEIIIZGxjARFURRFURRFUVRYaQBw7tw5iqIoiqIoiqKo0NKSHRAhhBBCCCGEpBEaCUIIIYQQQkhkaCQIIYQQQgghkaGRIIQQQgghhESGRoIQQgghhBASGRoJQgghhBBCSGRoJAghhBBCCCGRoZEghBBCCCGERIZGghBCCCGEEBIZGglCCCGEEEJIZGgkCCGEEEIIIZGhkSCEEEIIIYREhkaCEEIIIYQQEhkaCUIIIYQQQkhkaCQIIYQQQgghkfn/54wQPnHi30YAAAAASUVORK5CYII=;" vertex="1" parent="1">
          <mxGeometry x="147.5" y="-1115" width="487" height="198.28" as="geometry" />
        </mxCell>
        <mxCell id="5vsALhy4jxdvNL-aHRcl-4" value="P2" style="text;html=1;strokeColor=#d79b00;fillColor=#ffe6cc;align=center;verticalAlign=middle;whiteSpace=wrap;rounded=0;" vertex="1" parent="1">
          <mxGeometry x="190" y="-771" width="40" height="20" as="geometry" />
        </mxCell>
      </root>
    </mxGraphModel>
  </diagram>
</mxfile>
